<?plantuml 1.2026.1?><svg xmlns="http://www.w3.org/2000/svg" xmlns:xlink="http://www.w3.org/1999/xlink" contentStyleType="text/css" data-diagram-type="SEQUENCE" height="668px" preserveAspectRatio="none" style="width:568px;height:668px;background:#FEFEFE;" version="1.1" viewBox="0 0 568 668" width="568px" zoomAndPan="magnify"><defs/><g><rect fill="#FEFEFE" height="668" style="stroke:none;stroke-width:1;" width="568" x="0" y="0"/><g class="participant-lifeline" data-entity-uid="part1" data-qualified-name="a" id="part1-lifeline"><g><title>Docente</title><rect fill="#000000" fill-opacity="0.00000" height="512.9219" width="8" x="27.0339" y="77.8047"/><line style="stroke:#181818;stroke-width:0.5;stroke-dasharray:5,5;" x1="31" x2="31" y1="77.8047" y2="590.7266"/></g></g><g class="participant-lifeline" data-entity-uid="part2" data-qualified-name="v" id="part2-lifeline"><g><title>CancelarGeneracionView</title><rect fill="#000000" fill-opacity="0.00000" height="512.9219" width="8" x="187.0139" y="77.8047"/><line style="stroke:#181818;stroke-width:0.5;stroke-dasharray:5,5;" x1="190.0276" x2="190.0276" y1="77.8047" y2="590.7266"/></g></g><g class="participant-lifeline" data-entity-uid="part3" data-qualified-name="c" id="part3-lifeline"><g><title>ExamenesController</title><rect fill="#000000" fill-opacity="0.00000" height="512.9219" width="8" x="327.7522" y="77.8047"/><line style="stroke:#181818;stroke-width:0.5;stroke-dasharray:5,5;" x1="331.0002" x2="331.0002" y1="77.8047" y2="590.7266"/></g></g><g class="participant-lifeline" data-entity-uid="part4" data-qualified-name="s" id="part4-lifeline"><g><title>ExamenesService</title><rect fill="#000000" fill-opacity="0.00000" height="512.9219" width="8" x="448.408" y="77.8047"/><line style="stroke:#181818;stroke-width:0.5;stroke-dasharray:5,5;" x1="451.5042" x2="451.5042" y1="77.8047" y2="590.7266"/></g></g><g class="participant-lifeline" data-entity-uid="part5" data-qualified-name="e" id="part5-lifeline"><g><title>Examen</title><rect fill="#000000" fill-opacity="0.00000" height="512.9219" width="8" x="537.6775" y="77.8047"/><line style="stroke:#181818;stroke-width:0.5;stroke-dasharray:5,5;" x1="541.3499" x2="541.3499" y1="77.8047" y2="590.7266"/></g></g><g class="participant participant-head" data-entity-uid="part1" data-qualified-name="a" id="part1-head"><text fill="#000000" font-family="Arial" font-size="11" lengthAdjust="spacing" textLength="46.0679" x="5" y="75.2104">Docente</text><ellipse cx="31.0339" cy="13.5" fill="#E2E2F0" rx="8" ry="8" style="stroke:#181818;stroke-width:0.5;"/><path d="M31.0339,21.5 L31.0339,48.5 M18.0339,29.5 L44.0339,29.5 M31.0339,48.5 L18.0339,63.5 M31.0339,48.5 L44.0339,63.5" fill="none" style="stroke:#181818;stroke-width:0.5;"/></g><g class="participant participant-tail" data-entity-uid="part1" data-qualified-name="a" id="part1-tail"><text fill="#000000" font-family="Arial" font-size="11" lengthAdjust="spacing" textLength="46.0679" x="5" y="599.937">Docente</text><ellipse cx="31.0339" cy="611.0313" fill="#E2E2F0" rx="8" ry="8" style="stroke:#181818;stroke-width:0.5;"/><path d="M31.0339,619.0313 L31.0339,646.0313 M18.0339,627.0313 L44.0339,627.0313 M31.0339,646.0313 L18.0339,661.0313 M31.0339,646.0313 L44.0339,661.0313" fill="none" style="stroke:#181818;stroke-width:0.5;"/></g><g class="participant participant-head" data-entity-uid="part2" data-qualified-name="v" id="part2-head"><text fill="#000000" font-family="Arial" font-size="11" lengthAdjust="spacing" textLength="137.9727" x="119.0276" y="75.2104">CancelarGeneracionView</text><path d="M170.5139,37 L170.5139,61 M170.5139,49 L187.5139,49" fill="none" style="stroke:#181818;stroke-width:0.5;"/><ellipse cx="199.5139" cy="49" fill="#E2E2F0" rx="12" ry="12" style="stroke:#181818;stroke-width:0.5;"/></g><g class="participant participant-tail" data-entity-uid="part2" data-qualified-name="v" id="part2-tail"><text fill="#000000" font-family="Arial" font-size="11" lengthAdjust="spacing" textLength="137.9727" x="119.0276" y="599.937">CancelarGeneracionView</text><path d="M170.5139,606.5313 L170.5139,630.5313 M170.5139,618.5313 L187.5139,618.5313" fill="none" style="stroke:#181818;stroke-width:0.5;"/><ellipse cx="199.5139" cy="618.5313" fill="#E2E2F0" rx="12" ry="12" style="stroke:#181818;stroke-width:0.5;"/></g><g class="participant participant-head" data-entity-uid="part3" data-qualified-name="c" id="part3-head"><text fill="#000000" font-family="Arial" font-size="11" lengthAdjust="spacing" textLength="111.5039" x="273.0002" y="75.2104">ExamenesController</text><ellipse cx="331.7522" cy="49" fill="#E2E2F0" rx="12" ry="12" style="stroke:#181818;stroke-width:0.5;"/><polygon fill="#181818" points="327.7522,37,333.7522,32,331.7522,37,333.7522,42,327.7522,37" style="stroke:#181818;stroke-width:1;"/></g><g class="participant participant-tail" data-entity-uid="part3" data-qualified-name="c" id="part3-tail"><text fill="#000000" font-family="Arial" font-size="11" lengthAdjust="spacing" textLength="111.5039" x="273.0002" y="599.937">ExamenesController</text><ellipse cx="331.7522" cy="618.5313" fill="#E2E2F0" rx="12" ry="12" style="stroke:#181818;stroke-width:0.5;"/><polygon fill="#181818" points="327.7522,606.5313,333.7522,601.5313,331.7522,606.5313,333.7522,611.5313,327.7522,606.5313" style="stroke:#181818;stroke-width:1;"/></g><g class="participant participant-head" data-entity-uid="part4" data-qualified-name="s" id="part4-head"><text fill="#000000" font-family="Arial" font-size="11" lengthAdjust="spacing" textLength="97.8076" x="400.5042" y="75.2104">ExamenesService</text><ellipse cx="452.408" cy="49" fill="#E2E2F0" rx="12" ry="12" style="stroke:#181818;stroke-width:0.5;"/><line style="stroke:#181818;stroke-width:0.5;" x1="440.408" x2="464.408" y1="63" y2="63"/></g><g class="participant participant-tail" data-entity-uid="part4" data-qualified-name="s" id="part4-tail"><text fill="#000000" font-family="Arial" font-size="11" lengthAdjust="spacing" textLength="97.8076" x="400.5042" y="599.937">ExamenesService</text><ellipse cx="452.408" cy="618.5313" fill="#E2E2F0" rx="12" ry="12" style="stroke:#181818;stroke-width:0.5;"/><line style="stroke:#181818;stroke-width:0.5;" x1="440.408" x2="464.408" y1="632.5313" y2="632.5313"/></g><g class="participant participant-head" data-entity-uid="part5" data-qualified-name="e" id="part5-head"><text fill="#000000" font-family="Arial" font-size="11" lengthAdjust="spacing" textLength="44.6553" x="516.3499" y="75.2104">Examen</text><ellipse cx="541.6775" cy="49" fill="#E2E2F0" rx="12" ry="12" style="stroke:#181818;stroke-width:0.5;"/><line style="stroke:#181818;stroke-width:0.5;" x1="529.6775" x2="553.6775" y1="63" y2="63"/></g><g class="participant participant-tail" data-entity-uid="part5" data-qualified-name="e" id="part5-tail"><text fill="#000000" font-family="Arial" font-size="11" lengthAdjust="spacing" textLength="44.6553" x="516.3499" y="599.937">Examen</text><ellipse cx="541.6775" cy="618.5313" fill="#E2E2F0" rx="12" ry="12" style="stroke:#181818;stroke-width:0.5;"/><line style="stroke:#181818;stroke-width:0.5;" x1="529.6775" x2="553.6775" y1="632.5313" y2="632.5313"/></g><g class="message" data-entity-1="part1" data-entity-2="part2" id="msg1"><polygon fill="#181818" points="179.0139,128.2188,189.0139,132.2188,179.0139,136.2188,183.0139,132.2188" style="stroke:#181818;stroke-width:1;"/><line style="stroke:#181818;stroke-width:1;" x1="31.0339" x2="185.0139" y1="132.2188" y2="132.2188"/><text fill="#000000" font-family="Arial" font-size="11" lengthAdjust="spacing" textLength="52.9321" x="38.0339" y="102.0151">1: solicita</text><text fill="#000000" font-family="Arial" font-size="11" lengthAdjust="spacing" textLength="46.895" x="38.0339" y="114.8198">cancelar</text><text fill="#000000" font-family="Arial" font-size="11" lengthAdjust="spacing" textLength="61.5581" x="38.0339" y="127.6245">generaci&#243;n</text></g><g class="message" data-entity-1="part2" data-entity-2="part1" id="msg2"><polygon fill="#181818" points="42.0339,167.8281,32.0339,171.8281,42.0339,175.8281,38.0339,171.8281" style="stroke:#181818;stroke-width:1;"/><line style="stroke:#181818;stroke-width:1;stroke-dasharray:2,2;" x1="36.0339" x2="190.0139" y1="171.8281" y2="171.8281"/><text fill="#000000" font-family="Arial" font-size="11" lengthAdjust="spacing" textLength="62.9976" x="48.0339" y="154.4292">2: presenta</text><text fill="#000000" font-family="Arial" font-size="11" lengthAdjust="spacing" textLength="65.4199" x="48.0339" y="167.2339">advertencia</text></g><g class="message" data-entity-1="part1" data-entity-2="part2" id="msg3"><polygon fill="#181818" points="179.0139,207.4375,189.0139,211.4375,179.0139,215.4375,183.0139,211.4375" style="stroke:#181818;stroke-width:1;"/><line style="stroke:#181818;stroke-width:1;" x1="31.0339" x2="185.0139" y1="211.4375" y2="211.4375"/><text fill="#000000" font-family="Arial" font-size="11" lengthAdjust="spacing" textLength="62.8579" x="38.0339" y="194.0386">3: confirma</text><text fill="#000000" font-family="Arial" font-size="11" lengthAdjust="spacing" textLength="65.1782" x="38.0339" y="206.8433">cancelaci&#243;n</text></g><g class="message" data-entity-1="part2" data-entity-2="part3" id="msg4"><polygon fill="#181818" points="319.7522,259.8516,329.7522,263.8516,319.7522,267.8516,323.7522,263.8516" style="stroke:#181818;stroke-width:1;"/><line style="stroke:#181818;stroke-width:1;" x1="191.0139" x2="325.7522" y1="263.8516" y2="263.8516"/><text fill="#000000" font-family="Arial" font-size="11" lengthAdjust="spacing" textLength="74.8354" x="198.0139" y="233.6479">4: remove(id)</text><text fill="#000000" font-family="Arial" font-size="11" lengthAdjust="spacing" textLength="52.5347" x="198.0139" y="246.4526">(por cada</text><text fill="#000000" font-family="Arial" font-size="11" lengthAdjust="spacing" textLength="48.7642" x="198.0139" y="259.2573">examen)</text></g><g class="message" data-entity-1="part3" data-entity-2="part4" id="msg5"><polygon fill="#181818" points="440.408,286.6563,450.408,290.6563,440.408,294.6563,444.408,290.6563" style="stroke:#181818;stroke-width:1;"/><line style="stroke:#181818;stroke-width:1;" x1="331.7522" x2="446.408" y1="290.6563" y2="290.6563"/><text fill="#000000" font-family="Arial" font-size="11" lengthAdjust="spacing" textLength="74.8354" x="338.7522" y="286.062">5: remove(id)</text></g><g class="message" data-entity-1="part4" data-entity-2="part5" id="msg6"><polygon fill="#181818" points="529.6775,326.2656,539.6775,330.2656,529.6775,334.2656,533.6775,330.2656" style="stroke:#181818;stroke-width:1;"/><line style="stroke:#181818;stroke-width:1;" x1="452.408" x2="535.6775" y1="330.2656" y2="330.2656"/><text fill="#000000" font-family="Arial" font-size="11" lengthAdjust="spacing" textLength="65.2695" x="459.408" y="312.8667">5.1: verifica</text><text fill="#000000" font-family="Arial" font-size="11" lengthAdjust="spacing" textLength="50.3701" x="459.408" y="325.6714">y elimina</text></g><g class="message" data-entity-1="part5" data-entity-2="part4" id="msg7"><polygon fill="#181818" points="463.408,353.0703,453.408,357.0703,463.408,361.0703,459.408,357.0703" style="stroke:#181818;stroke-width:1;"/><line style="stroke:#181818;stroke-width:1;stroke-dasharray:2,2;" x1="457.408" x2="540.6775" y1="357.0703" y2="357.0703"/><text fill="#000000" font-family="Arial" font-size="11" lengthAdjust="spacing" textLength="13.1001" x="469.408" y="352.4761">ok</text></g><g class="message" data-entity-1="part4" data-entity-2="part3" id="msg8"><polygon fill="#181818" points="342.7522,392.6797,332.7522,396.6797,342.7522,400.6797,338.7522,396.6797" style="stroke:#181818;stroke-width:1;"/><line style="stroke:#181818;stroke-width:1;stroke-dasharray:2,2;" x1="336.7522" x2="451.408" y1="396.6797" y2="396.6797"/><text fill="#000000" font-family="Arial" font-size="11" lengthAdjust="spacing" textLength="44.4727" x="348.7522" y="379.2808">examen</text><text fill="#000000" font-family="Arial" font-size="11" lengthAdjust="spacing" textLength="54.0762" x="348.7522" y="392.0854">eliminado</text></g><g class="message" data-entity-1="part3" data-entity-2="part2" id="msg9"><polygon fill="#181818" points="202.0139,419.4844,192.0139,423.4844,202.0139,427.4844,198.0139,423.4844" style="stroke:#181818;stroke-width:1;"/><line style="stroke:#181818;stroke-width:1;stroke-dasharray:2,2;" x1="196.0139" x2="330.7522" y1="423.4844" y2="423.4844"/><text fill="#000000" font-family="Arial" font-size="11" lengthAdjust="spacing" textLength="13.1001" x="208.0139" y="418.8901">ok</text></g><g class="message" data-entity-1="part2" data-entity-2="part1" id="msg10"><polygon fill="#181818" points="42.0339,471.8984,32.0339,475.8984,42.0339,479.8984,38.0339,475.8984" style="stroke:#181818;stroke-width:1;"/><line style="stroke:#181818;stroke-width:1;stroke-dasharray:2,2;" x1="36.0339" x2="190.0139" y1="475.8984" y2="475.8984"/><text fill="#000000" font-family="Arial" font-size="11" lengthAdjust="spacing" textLength="67.0957" x="48.0339" y="445.6948">6: redirige a</text><text fill="#000000" font-family="Arial" font-size="11" lengthAdjust="spacing" textLength="119.48" x="48.0339" y="458.4995">SISTEMA_DISPONIBLE</text><text fill="#000000" font-family="Arial" font-size="11" lengthAdjust="spacing" textLength="135.98" x="48.0339" y="471.3042">o ASIGNATURA_ABIERTO</text></g><path d="M336,488.8984 L336,574.8984 L480,574.8984 L480,498.8984 L470,488.8984 L336,488.8984" fill="#FEFFDD" style="stroke:#181818;stroke-width:0.5;"/><path d="M470,488.8984 L470,498.8984 L480,498.8984 L470,488.8984" fill="#FEFFDD" style="stroke:#181818;stroke-width:0.5;"/><text fill="#000000" font-family="Arial" font-size="11" lengthAdjust="spacing" textLength="123.793" x="342" y="504.1089">DELETE /examenes/:id</text><text fill="#000000" font-family="Arial" font-size="11" lengthAdjust="spacing" textLength="94.6655" x="342" y="516.9136">(uno por examen</text><text fill="#000000" font-family="Arial" font-size="11" lengthAdjust="spacing" textLength="56.7563" x="342" y="529.7183">generado)</text><text fill="#000000" font-family="Arial" font-size="11" lengthAdjust="spacing" textLength="3.4966" x="342" y="542.5229">&#160;</text><text fill="#000000" font-family="Arial" font-size="11" lengthAdjust="spacing" textLength="69.2817" x="342" y="555.3276">Sin endpoint</text><text fill="#000000" font-family="Arial" font-size="11" lengthAdjust="spacing" textLength="84.8418" x="342" y="568.1323">batch dedicado</text><?plantuml-src RP9DRjim48NtFCN0sTYBD73_5be4K6mbC90wHUHsPI0OasDdO6beKBHQzrezGY-MeIJ4GH5enJSVttiarUnP3XYmXWtQ_IxuexYPhto0YziYVQPv9HnjyLZ5MoznYJL17XYhz-Sb_o6OJer16zLhDFUM9D88i04qcvI2uGIZ6Ogb2iCT2GMqxEKdqwyEQurLe-0h61M_DKwecVL2HQ4Zh55FZgSpK59esVOnpN_JJYHj19VNq486qmmQNx7bY6knGv6rx8Og__wAQU5IOLJuOmQ7G8rQAeokfH19BECRlqyPQECjX_hizsfp3LQHpna4gdrBOtQJjOmFUZSMdVBKTPmOcz16qIzlKTCacPByGMjhEc_PwhOJKCKr2nhgggQTVf_m8R7tLVyUSpub38KLF1_mQyfp77X7eCRbebmLt_Ad-QBy_h1StDmNQ_6GbukxPRxwyPW_vJUBud7rO8puIA3RdYFuhRu9mBouBrO5ND7mAbSPEvN7HtL89-vrLVghTdvYT56o08axU9Qeomr6-wo_bDDpQckTG4eoBm00?></g></svg>