<?xml version="1.0" encoding="us-ascii" standalone="no"?><svg xmlns="http://www.w3.org/2000/svg" xmlns:xlink="http://www.w3.org/1999/xlink" contentStyleType="text/css" height="677px" preserveAspectRatio="none" style="width:1066px;height:677px;background:#FFFFFF;" version="1.1" viewBox="0 0 1066 677" width="1066px" zoomAndPan="magnify"><defs/><g><text fill="#000000" font-family="sans-serif" font-size="14" font-weight="bold" lengthAdjust="spacing" textLength="247" x="405.25" y="29.9659">Dise&#241;o Detallado: eliminarAlumno()</text><rect fill="#FFFFFF" height="182.0647" style="stroke:#181818;stroke-width:1.0;" width="10" x="569.5" y="305.4767"/><rect fill="#FFFFFF" height="121.3765" style="stroke:#181818;stroke-width:1.0;" width="10" x="681" y="335.8208"/><rect fill="#FFFFFF" height="60.6882" style="stroke:#181818;stroke-width:1.0;" width="10" x="798" y="366.1649"/><line style="stroke:#181818;stroke-width:0.5;stroke-dasharray:5.0,5.0;" x1="48" x2="48" y1="121.412" y2="596.5737"/><line style="stroke:#181818;stroke-width:0.5;stroke-dasharray:5.0,5.0;" x1="199.5" x2="199.5" y1="121.412" y2="596.5737"/><line style="stroke:#181818;stroke-width:0.5;stroke-dasharray:5.0,5.0;" x1="327.5" x2="327.5" y1="121.412" y2="596.5737"/><line style="stroke:#181818;stroke-width:0.5;stroke-dasharray:5.0,5.0;" x1="435.5" x2="435.5" y1="121.412" y2="596.5737"/><line style="stroke:#181818;stroke-width:0.5;stroke-dasharray:5.0,5.0;" x1="574" x2="574" y1="121.412" y2="596.5737"/><line style="stroke:#181818;stroke-width:0.5;stroke-dasharray:5.0,5.0;" x1="686" x2="686" y1="121.412" y2="596.5737"/><line style="stroke:#181818;stroke-width:0.5;stroke-dasharray:5.0,5.0;" x1="803" x2="803" y1="121.412" y2="596.5737"/><line style="stroke:#181818;stroke-width:0.5;stroke-dasharray:5.0,5.0;" x1="1030.5" x2="1030.5" y1="121.412" y2="596.5737"/><text fill="#000000" font-family="sans-serif" font-size="12" lengthAdjust="spacing" textLength="80" x="5" y="117.896">Administrador</text><ellipse cx="48" cy="53.5679" fill="#E2E2F0" rx="8" ry="8" style="stroke:#181818;stroke-width:0.5;"/><path d="M48,61.5679 L48,88.5679 M35,69.5679 L61,69.5679 M48,88.5679 L35,103.5679 M48,88.5679 L61,103.5679 " fill="none" style="stroke:#181818;stroke-width:0.5;"/><text fill="#000000" font-family="sans-serif" font-size="12" lengthAdjust="spacing" textLength="80" x="5" y="608.4018">Administrador</text><ellipse cx="48" cy="620.4179" fill="#E2E2F0" rx="8" ry="8" style="stroke:#181818;stroke-width:0.5;"/><path d="M48,628.4179 L48,655.4179 M35,636.4179 L61,636.4179 M48,655.4179 L35,670.4179 M48,655.4179 L61,670.4179 " fill="none" style="stroke:#181818;stroke-width:0.5;"/><text fill="#000000" font-family="sans-serif" font-size="12" font-style="italic" lengthAdjust="spacing" textLength="55" x="169.5" y="101.5519">&#171;Angular&#187;</text><text fill="#000000" font-family="sans-serif" font-size="12" lengthAdjust="spacing" textLength="127" x="133.5" y="117.896">AlumnoListComponent</text><path d="M179.5,60.7238 L179.5,84.7238 M179.5,72.7238 L196.5,72.7238 " fill="none" style="stroke:#181818;stroke-width:0.5;"/><ellipse cx="208.5" cy="72.7238" fill="#E2E2F0" rx="12" ry="12" style="stroke:#181818;stroke-width:0.5;"/><text fill="#000000" font-family="sans-serif" font-size="12" font-style="italic" lengthAdjust="spacing" textLength="55" x="169.5" y="608.4018">&#171;Angular&#187;</text><text fill="#000000" font-family="sans-serif" font-size="12" lengthAdjust="spacing" textLength="127" x="133.5" y="624.7459">AlumnoListComponent</text><path d="M179.5,632.262 L179.5,656.262 M179.5,644.262 L196.5,644.262 " fill="none" style="stroke:#181818;stroke-width:0.5;"/><ellipse cx="208.5" cy="644.262" fill="#E2E2F0" rx="12" ry="12" style="stroke:#181818;stroke-width:0.5;"/><text fill="#000000" font-family="sans-serif" font-size="12" font-style="italic" lengthAdjust="spacing" textLength="55" x="297.5" y="101.5519">&#171;Angular&#187;</text><text fill="#000000" font-family="sans-serif" font-size="12" lengthAdjust="spacing" textLength="81" x="284.5" y="117.896">ConfirmDialog</text><path d="M307.5,60.7238 L307.5,84.7238 M307.5,72.7238 L324.5,72.7238 " fill="none" style="stroke:#181818;stroke-width:0.5;"/><ellipse cx="336.5" cy="72.7238" fill="#E2E2F0" rx="12" ry="12" style="stroke:#181818;stroke-width:0.5;"/><text fill="#000000" font-family="sans-serif" font-size="12" font-style="italic" lengthAdjust="spacing" textLength="55" x="297.5" y="608.4018">&#171;Angular&#187;</text><text fill="#000000" font-family="sans-serif" font-size="12" lengthAdjust="spacing" textLength="81" x="284.5" y="624.7459">ConfirmDialog</text><path d="M307.5,632.262 L307.5,656.262 M307.5,644.262 L324.5,644.262 " fill="none" style="stroke:#181818;stroke-width:0.5;"/><ellipse cx="336.5" cy="644.262" fill="#E2E2F0" rx="12" ry="12" style="stroke:#181818;stroke-width:0.5;"/><text fill="#000000" font-family="sans-serif" font-size="12" font-style="italic" lengthAdjust="spacing" textLength="55" x="405" y="101.5519">&#171;Angular&#187;</text><text fill="#000000" font-family="sans-serif" font-size="12" lengthAdjust="spacing" textLength="102" x="381.5" y="117.896">AlumnoApiService</text><ellipse cx="435.5" cy="72.7238" fill="#E2E2F0" rx="12" ry="12" style="stroke:#181818;stroke-width:0.5;"/><polygon fill="#181818" points="431.5,60.7238,437.5,55.7238,435.5,60.7238,437.5,65.7238,431.5,60.7238" style="stroke:#181818;stroke-width:1.0;"/><text fill="#000000" font-family="sans-serif" font-size="12" font-style="italic" lengthAdjust="spacing" textLength="55" x="405" y="608.4018">&#171;Angular&#187;</text><text fill="#000000" font-family="sans-serif" font-size="12" lengthAdjust="spacing" textLength="102" x="381.5" y="624.7459">AlumnoApiService</text><ellipse cx="435.5" cy="644.262" fill="#E2E2F0" rx="12" ry="12" style="stroke:#181818;stroke-width:0.5;"/><polygon fill="#181818" points="431.5,632.262,437.5,627.262,435.5,632.262,437.5,637.262,431.5,632.262" style="stroke:#181818;stroke-width:1.0;"/><text fill="#000000" font-family="sans-serif" font-size="12" font-style="italic" lengthAdjust="spacing" textLength="44" x="549.5" y="101.5519">&#171;NestJS&#187;</text><text fill="#000000" font-family="sans-serif" font-size="12" lengthAdjust="spacing" textLength="99" x="522" y="117.896">AlumnoController</text><ellipse cx="574.5" cy="72.7238" fill="#E2E2F0" rx="12" ry="12" style="stroke:#181818;stroke-width:0.5;"/><polygon fill="#181818" points="570.5,60.7238,576.5,55.7238,574.5,60.7238,576.5,65.7238,570.5,60.7238" style="stroke:#181818;stroke-width:1.0;"/><text fill="#000000" font-family="sans-serif" font-size="12" font-style="italic" lengthAdjust="spacing" textLength="44" x="549.5" y="608.4018">&#171;NestJS&#187;</text><text fill="#000000" font-family="sans-serif" font-size="12" lengthAdjust="spacing" textLength="99" x="522" y="624.7459">AlumnoController</text><ellipse cx="574.5" cy="644.262" fill="#E2E2F0" rx="12" ry="12" style="stroke:#181818;stroke-width:0.5;"/><polygon fill="#181818" points="570.5,632.262,576.5,627.262,574.5,632.262,576.5,637.262,570.5,632.262" style="stroke:#181818;stroke-width:1.0;"/><rect fill="#E2E2F0" height="46.6882" rx="2.5" ry="2.5" style="stroke:#181818;stroke-width:0.5;" width="98" x="637" y="73.7238"/><text fill="#000000" font-family="sans-serif" font-size="12" font-style="italic" lengthAdjust="spacing" textLength="44" x="664" y="93.5519">&#171;NestJS&#187;</text><text fill="#000000" font-family="sans-serif" font-size="12" lengthAdjust="spacing" textLength="84" x="644" y="109.896">AlumnoService</text><rect fill="#E2E2F0" height="46.6882" rx="2.5" ry="2.5" style="stroke:#181818;stroke-width:0.5;" width="98" x="637" y="595.5737"/><text fill="#000000" font-family="sans-serif" font-size="12" font-style="italic" lengthAdjust="spacing" textLength="44" x="664" y="615.4018">&#171;NestJS&#187;</text><text fill="#000000" font-family="sans-serif" font-size="12" lengthAdjust="spacing" textLength="84" x="644" y="631.7459">AlumnoService</text><rect fill="#E2E2F0" height="46.6882" rx="2.5" ry="2.5" style="stroke:#181818;stroke-width:0.5;" width="116" x="745" y="73.7238"/><text fill="#000000" font-family="sans-serif" font-size="12" font-style="italic" lengthAdjust="spacing" textLength="63" x="771.5" y="93.5519">&#171;TypeORM&#187;</text><text fill="#000000" font-family="sans-serif" font-size="12" lengthAdjust="spacing" textLength="102" x="752" y="109.896">AlumnoRepository</text><rect fill="#E2E2F0" height="46.6882" rx="2.5" ry="2.5" style="stroke:#181818;stroke-width:0.5;" width="116" x="745" y="595.5737"/><text fill="#000000" font-family="sans-serif" font-size="12" font-style="italic" lengthAdjust="spacing" textLength="63" x="771.5" y="615.4018">&#171;TypeORM&#187;</text><text fill="#000000" font-family="sans-serif" font-size="12" lengthAdjust="spacing" textLength="102" x="752" y="631.7459">AlumnoRepository</text><text fill="#000000" font-family="sans-serif" font-size="12" lengthAdjust="spacing" textLength="39" x="1008.5" y="117.896">MySQL</text><path d="M1013,69.0679 C1013,59.0679 1031,59.0679 1031,59.0679 C1031,59.0679 1049,59.0679 1049,69.0679 L1049,95.0679 C1049,105.0679 1031,105.0679 1031,105.0679 C1031,105.0679 1013,105.0679 1013,95.0679 L1013,69.0679 " fill="#E2E2F0" style="stroke:#181818;stroke-width:1.5;"/><path d="M1013,69.0679 C1013,79.0679 1031,79.0679 1031,79.0679 C1031,79.0679 1049,79.0679 1049,69.0679 " fill="none" style="stroke:#181818;stroke-width:1.5;"/><text fill="#000000" font-family="sans-serif" font-size="12" lengthAdjust="spacing" textLength="39" x="1008.5" y="608.4018">MySQL</text><path d="M1013,621.9179 C1013,611.9179 1031,611.9179 1031,611.9179 C1031,611.9179 1049,611.9179 1049,621.9179 L1049,647.9179 C1049,657.9179 1031,657.9179 1031,657.9179 C1031,657.9179 1013,657.9179 1013,647.9179 L1013,621.9179 " fill="#E2E2F0" style="stroke:#181818;stroke-width:1.5;"/><path d="M1013,621.9179 C1013,631.9179 1031,631.9179 1031,631.9179 C1031,631.9179 1049,631.9179 1049,621.9179 " fill="none" style="stroke:#181818;stroke-width:1.5;"/><rect fill="#FFFFFF" height="182.0647" style="stroke:#181818;stroke-width:1.0;" width="10" x="569.5" y="305.4767"/><rect fill="#FFFFFF" height="121.3765" style="stroke:#181818;stroke-width:1.0;" width="10" x="681" y="335.8208"/><rect fill="#FFFFFF" height="60.6882" style="stroke:#181818;stroke-width:1.0;" width="10" x="798" y="366.1649"/><polygon fill="#181818" points="188,149.7561,198,153.7561,188,157.7561,192,153.7561" style="stroke:#181818;stroke-width:1.0;"/><line style="stroke:#181818;stroke-width:1.0;" x1="48" x2="194" y1="153.7561" y2="153.7561"/><text fill="#000000" font-family="sans-serif" font-size="12" lengthAdjust="spacing" textLength="114" x="55" y="148.2401">clicEliminar(alumno)</text><polygon fill="#181818" points="316,180.1003,326,184.1003,316,188.1003,320,184.1003" style="stroke:#181818;stroke-width:1.0;"/><line style="stroke:#181818;stroke-width:1.0;" x1="200" x2="322" y1="184.1003" y2="184.1003"/><text fill="#000000" font-family="sans-serif" font-size="12" lengthAdjust="spacing" textLength="77" x="207" y="178.5842">abrir(alumno)</text><polygon fill="#181818" points="59,210.4444,49,214.4444,59,218.4444,55,214.4444" style="stroke:#181818;stroke-width:1.0;"/><line style="stroke:#181818;stroke-width:1.0;stroke-dasharray:2.0,2.0;" x1="53" x2="327" y1="214.4444" y2="214.4444"/><text fill="#000000" font-family="sans-serif" font-size="12" lengthAdjust="spacing" textLength="170" x="65" y="208.9283">mostrarConfirmacion(alumno)</text><polygon fill="#181818" points="316,240.7885,326,244.7885,316,248.7885,320,244.7885" style="stroke:#181818;stroke-width:1.0;"/><line style="stroke:#181818;stroke-width:1.0;" x1="48" x2="322" y1="244.7885" y2="244.7885"/><text fill="#000000" font-family="sans-serif" font-size="12" lengthAdjust="spacing" textLength="63" x="55" y="239.2725">confirmar()</text><polygon fill="#181818" points="423.5,271.1326,433.5,275.1326,423.5,279.1326,427.5,275.1326" style="stroke:#181818;stroke-width:1.0;"/><line style="stroke:#181818;stroke-width:1.0;" x1="328" x2="429.5" y1="275.1326" y2="275.1326"/><text fill="#000000" font-family="sans-serif" font-size="12" lengthAdjust="spacing" textLength="64" x="335" y="269.6166">eliminar(id)</text><polygon fill="#181818" points="557.5,301.4767,567.5,305.4767,557.5,309.4767,561.5,305.4767" style="stroke:#181818;stroke-width:1.0;"/><line style="stroke:#181818;stroke-width:1.0;" x1="435.5" x2="563.5" y1="305.4767" y2="305.4767"/><text fill="#000000" font-family="sans-serif" font-size="12" lengthAdjust="spacing" textLength="115" x="442.5" y="299.9607">DELETE /alumnos/:id</text><polygon fill="#181818" points="669,331.8208,679,335.8208,669,339.8208,673,335.8208" style="stroke:#181818;stroke-width:1.0;"/><line style="stroke:#181818;stroke-width:1.0;" x1="579.5" x2="675" y1="335.8208" y2="335.8208"/><text fill="#000000" font-family="sans-serif" font-size="12" lengthAdjust="spacing" textLength="61" x="586.5" y="330.3048">remove(id)</text><polygon fill="#181818" points="786,362.1649,796,366.1649,786,370.1649,790,366.1649" style="stroke:#181818;stroke-width:1.0;"/><line style="stroke:#181818;stroke-width:1.0;" x1="691" x2="792" y1="366.1649" y2="366.1649"/><text fill="#000000" font-family="sans-serif" font-size="12" lengthAdjust="spacing" textLength="53" x="698" y="360.6489">delete(id)</text><polygon fill="#181818" points="1019,392.5091,1029,396.5091,1019,400.5091,1023,396.5091" style="stroke:#181818;stroke-width:1.0;"/><line style="stroke:#181818;stroke-width:1.0;" x1="808" x2="1025" y1="396.5091" y2="396.5091"/><text fill="#000000" font-family="sans-serif" font-size="12" lengthAdjust="spacing" textLength="199" x="815" y="390.993">DELETE FROM alumno WHERE id = ?</text><polygon fill="#181818" points="814,422.8532,804,426.8532,814,430.8532,810,426.8532" style="stroke:#181818;stroke-width:1.0;"/><line style="stroke:#181818;stroke-width:1.0;stroke-dasharray:2.0,2.0;" x1="808" x2="1030" y1="426.8532" y2="426.8532"/><text fill="#000000" font-family="sans-serif" font-size="12" lengthAdjust="spacing" textLength="16" x="820" y="421.3371">OK</text><polygon fill="#181818" points="590.5,453.1973,580.5,457.1973,590.5,461.1973,586.5,457.1973" style="stroke:#181818;stroke-width:1.0;"/><line style="stroke:#181818;stroke-width:1.0;stroke-dasharray:2.0,2.0;" x1="584.5" x2="685" y1="457.1973" y2="457.1973"/><text fill="#000000" font-family="sans-serif" font-size="12" lengthAdjust="spacing" textLength="16" x="596.5" y="451.6813">OK</text><polygon fill="#181818" points="446.5,483.5414,436.5,487.5414,446.5,491.5414,442.5,487.5414" style="stroke:#181818;stroke-width:1.0;"/><line style="stroke:#181818;stroke-width:1.0;stroke-dasharray:2.0,2.0;" x1="440.5" x2="573.5" y1="487.5414" y2="487.5414"/><text fill="#000000" font-family="sans-serif" font-size="12" lengthAdjust="spacing" textLength="40" x="452.5" y="482.0254">200 OK</text><polygon fill="#181818" points="339,513.8855,329,517.8855,339,521.8855,335,517.8855" style="stroke:#181818;stroke-width:1.0;"/><line style="stroke:#181818;stroke-width:1.0;stroke-dasharray:2.0,2.0;" x1="333" x2="434.5" y1="517.8855" y2="517.8855"/><text fill="#000000" font-family="sans-serif" font-size="12" lengthAdjust="spacing" textLength="16" x="345" y="512.3695">OK</text><polygon fill="#181818" points="211,544.2296,201,548.2296,211,552.2296,207,548.2296" style="stroke:#181818;stroke-width:1.0;"/><line style="stroke:#181818;stroke-width:1.0;" x1="205" x2="327" y1="548.2296" y2="548.2296"/><text fill="#000000" font-family="sans-serif" font-size="12" lengthAdjust="spacing" textLength="104" x="217" y="542.7136">cerrarYRefrescar()</text><polygon fill="#181818" points="59,574.5737,49,578.5737,59,582.5737,55,578.5737" style="stroke:#181818;stroke-width:1.0;"/><line style="stroke:#181818;stroke-width:1.0;stroke-dasharray:2.0,2.0;" x1="53" x2="199" y1="578.5737" y2="578.5737"/><text fill="#000000" font-family="sans-serif" font-size="12" lengthAdjust="spacing" textLength="128" x="65" y="573.0577">mostrarMensajeExito()</text><!--SRC=[XPFFRjim3CRlUWeTqqFGhaUZon0aBeejMR2amD0Z8pCkMrao92MTzrPxXhtOc3ZrdrhjRhRvuqT-9EsVoPJWe91RKC-vitkJpQosJhuyKa3XcxX_XCo-aCdb3hJlHkQuWxqEjzQ4EdMhMIiEREWtoa_NdM39BEIu2PL6wL05CBdkocio6AeIPMbrTNmH8b1WU4uU__wnB1z0Q-ukaQYf80DkglU5iQCB8K05xcYQyMVomJ7bnFRe4bmbQsp1WPajIclG17bpCpNvNeERJ5fmPisEN34dq3Rl8OfDEQlFKjEIDkWEfF03Q5Q_QNGCVKSVlcwOORE159N0FTHSg_G1jCRIUcAF5NFtFARLUibW1W6su54kgysFXH2z0SZn96ezaKgJIiyp7C49kH0nb1NwCqaaR1srIVte-5Ynrq8Y2tjyTcSG55dJP0_xVLjDdTFSQ51hCbn6UnaZobuTTU9DJcStYPodY_G-bPTrL_uoeUnuJtI0W0DUY852ezgsuR2m1pmryKRfp8X-HYFHsNCYCzGOeYej9WPvh7MwXjRPxNgrbBKx-VCkNQUIClbPVX4rDuvNNtqJ6VwlRcCWFjgOnki48eECx_JwwYegD5nATzMHOsAHTsvey8EWuvjzMEFEeLUdwul-7k_V-nADXoTCV_6qEFiV]--></g></svg>