<svg xmlns="http://www.w3.org/2000/svg" xmlns:xlink="http://www.w3.org/1999/xlink" contentStyleType="text/css" data-diagram-type="SEQUENCE" height="523px" preserveAspectRatio="none" style="width:1189px;height:523px;background:#FFFFFF;" version="1.1" viewBox="0 0 1189 523" width="1189px" zoomAndPan="magnify"><title>Diagrama de Secuencia - Editar Espacio</title><defs/><g><text fill="#000000" font-family="sans-serif" font-size="14" font-weight="bold" lengthAdjust="spacing" textLength="313.332" x="432.666" y="27.9951">Diagrama de Secuencia - Editar Espacio</text><g><title>DialogForm</title><rect fill="#FFFFFF" height="275.1953" style="stroke:#181818;stroke-width:1;" width="10" x="291.1289" y="149.7266"/></g><g><title>EspacioController</title><rect fill="#FFFFFF" height="216.9297" style="stroke:#181818;stroke-width:1;" width="10" x="500.1357" y="178.8594"/></g><g><title>GestionEspacioService</title><rect fill="#FFFFFF" height="158.6641" style="stroke:#181818;stroke-width:1;" width="10" x="771.7495" y="207.9922"/></g><g><title>EspacioRepository</title><rect fill="#FFFFFF" height="58.2656" style="stroke:#181818;stroke-width:1;" width="10" x="931.7007" y="279.2578"/></g><g><title>Administrador</title><rect fill="#000000" fill-opacity="0.00000" height="324.3281" width="8" x="53.54" y="118.5938"/><line style="stroke:#181818;stroke-width:0.5;stroke-dasharray:5,5;" x1="57" x2="57" y1="118.5938" y2="442.9219"/></g><g><title>DialogForm</title><rect fill="#000000" fill-opacity="0.00000" height="324.3281" width="8" x="292.1289" y="118.5938"/><line style="stroke:#181818;stroke-width:0.5;stroke-dasharray:5,5;" x1="295.8276" x2="295.8276" y1="118.5938" y2="442.9219"/></g><g><title>EspacioController</title><rect fill="#000000" fill-opacity="0.00000" height="324.3281" width="8" x="501.1357" y="118.5938"/><line style="stroke:#181818;stroke-width:0.5;stroke-dasharray:5,5;" x1="504.6704" x2="504.6704" y1="118.5938" y2="442.9219"/></g><g><title>GestionEspacioService</title><rect fill="#000000" fill-opacity="0.00000" height="324.3281" width="8" x="772.7495" y="118.5938"/><line style="stroke:#181818;stroke-width:0.5;stroke-dasharray:5,5;" x1="776.2134" x2="776.2134" y1="118.5938" y2="442.9219"/></g><g><title>EspacioRepository</title><rect fill="#000000" fill-opacity="0.00000" height="324.3281" width="8" x="932.7007" y="118.5938"/><line style="stroke:#181818;stroke-width:0.5;stroke-dasharray:5,5;" x1="936.2856" x2="936.2856" y1="118.5938" y2="442.9219"/></g><g><title>JSON</title><rect fill="#000000" fill-opacity="0.00000" height="324.3281" width="8" x="1150.4102" y="118.5938"/><line style="stroke:#181818;stroke-width:0.5;stroke-dasharray:5,5;" x1="1154.1563" x2="1154.1563" y1="118.5938" y2="442.9219"/></g><g class="participant participant-head" data-participant="admin"><text fill="#000000" font-family="sans-serif" font-size="14" lengthAdjust="spacing" textLength="99.0801" x="5" y="115.292">Administrador</text><ellipse cx="57.54" cy="50.7969" fill="#E2E2F0" rx="8" ry="8" style="stroke:#181818;stroke-width:0.5;"/><path d="M57.54,58.7969 L57.54,85.7969 M44.54,66.7969 L70.54,66.7969 M57.54,85.7969 L44.54,100.7969 M57.54,85.7969 L70.54,100.7969" fill="none" style="stroke:#181818;stroke-width:0.5;"/></g><g class="participant participant-tail" data-participant="admin"><text fill="#000000" font-family="sans-serif" font-size="14" lengthAdjust="spacing" textLength="99.0801" x="5" y="454.917">Administrador</text><ellipse cx="57.54" cy="466.7188" fill="#E2E2F0" rx="8" ry="8" style="stroke:#181818;stroke-width:0.5;"/><path d="M57.54,474.7188 L57.54,501.7188 M44.54,482.7188 L70.54,482.7188 M57.54,501.7188 L44.54,516.7188 M57.54,501.7188 L70.54,516.7188" fill="none" style="stroke:#181818;stroke-width:0.5;"/></g><g class="participant participant-head" data-participant="view"><text fill="#000000" font-family="sans-serif" font-size="14" lengthAdjust="spacing" textLength="80.6025" x="252.8276" y="115.292">DialogForm</text><path d="M275.6289,74.2969 L275.6289,98.2969 M275.6289,86.2969 L292.6289,86.2969" fill="none" style="stroke:#181818;stroke-width:0.5;"/><ellipse cx="304.6289" cy="86.2969" fill="#E2E2F0" rx="12" ry="12" style="stroke:#181818;stroke-width:0.5;"/></g><g class="participant participant-tail" data-participant="view"><text fill="#000000" font-family="sans-serif" font-size="14" lengthAdjust="spacing" textLength="80.6025" x="252.8276" y="454.917">DialogForm</text><path d="M275.6289,462.2188 L275.6289,486.2188 M275.6289,474.2188 L292.6289,474.2188" fill="none" style="stroke:#181818;stroke-width:0.5;"/><ellipse cx="304.6289" cy="474.2188" fill="#E2E2F0" rx="12" ry="12" style="stroke:#181818;stroke-width:0.5;"/></g><g class="participant participant-head" data-participant="controller"><text fill="#000000" font-family="sans-serif" font-size="14" lengthAdjust="spacing" textLength="122.9307" x="440.6704" y="115.292">EspacioController</text><ellipse cx="505.1357" cy="86.2969" fill="#E2E2F0" rx="12" ry="12" style="stroke:#181818;stroke-width:0.5;"/><polygon fill="#181818" points="501.1357,74.2969,507.1357,69.2969,505.1357,74.2969,507.1357,79.2969,501.1357,74.2969" style="stroke:#181818;stroke-width:1;"/></g><g class="participant participant-tail" data-participant="controller"><text fill="#000000" font-family="sans-serif" font-size="14" lengthAdjust="spacing" textLength="122.9307" x="440.6704" y="454.917">EspacioController</text><ellipse cx="505.1357" cy="474.2188" fill="#E2E2F0" rx="12" ry="12" style="stroke:#181818;stroke-width:0.5;"/><polygon fill="#181818" points="501.1357,462.2188,507.1357,457.2188,505.1357,462.2188,507.1357,467.2188,501.1357,462.2188" style="stroke:#181818;stroke-width:1;"/></g><g class="participant participant-head" data-participant="service"><text fill="#000000" font-family="sans-serif" font-size="14" lengthAdjust="spacing" textLength="159.0723" x="694.2134" y="115.292">GestionEspacioService</text><ellipse cx="776.7495" cy="86.2969" fill="#E2E2F0" rx="12" ry="12" style="stroke:#181818;stroke-width:0.5;"/><polygon fill="#181818" points="772.7495,74.2969,778.7495,69.2969,776.7495,74.2969,778.7495,79.2969,772.7495,74.2969" style="stroke:#181818;stroke-width:1;"/></g><g class="participant participant-tail" data-participant="service"><text fill="#000000" font-family="sans-serif" font-size="14" lengthAdjust="spacing" textLength="159.0723" x="694.2134" y="454.917">GestionEspacioService</text><ellipse cx="776.7495" cy="474.2188" fill="#E2E2F0" rx="12" ry="12" style="stroke:#181818;stroke-width:0.5;"/><polygon fill="#181818" points="772.7495,462.2188,778.7495,457.2188,776.7495,462.2188,778.7495,467.2188,772.7495,462.2188" style="stroke:#181818;stroke-width:1;"/></g><g class="participant participant-head" data-participant="repository"><text fill="#000000" font-family="sans-serif" font-size="14" lengthAdjust="spacing" textLength="128.8301" x="869.2856" y="115.292">EspacioRepository</text><ellipse cx="936.7007" cy="86.2969" fill="#E2E2F0" rx="12" ry="12" style="stroke:#181818;stroke-width:0.5;"/><polygon fill="#181818" points="932.7007,74.2969,938.7007,69.2969,936.7007,74.2969,938.7007,79.2969,932.7007,74.2969" style="stroke:#181818;stroke-width:1;"/></g><g class="participant participant-tail" data-participant="repository"><text fill="#000000" font-family="sans-serif" font-size="14" lengthAdjust="spacing" textLength="128.8301" x="869.2856" y="454.917">EspacioRepository</text><ellipse cx="936.7007" cy="474.2188" fill="#E2E2F0" rx="12" ry="12" style="stroke:#181818;stroke-width:0.5;"/><polygon fill="#181818" points="932.7007,462.2188,938.7007,457.2188,936.7007,462.2188,938.7007,467.2188,932.7007,462.2188" style="stroke:#181818;stroke-width:1;"/></g><g class="participant participant-head" data-participant="db"><text fill="#000000" font-family="sans-serif" font-size="14" lengthAdjust="spacing" textLength="34.5078" x="1134.1563" y="115.292">JSON</text><path d="M1136.4102,66.2969 C1136.4102,56.2969 1154.4102,56.2969 1154.4102,56.2969 C1154.4102,56.2969 1172.4102,56.2969 1172.4102,66.2969 L1172.4102,92.2969 C1172.4102,102.2969 1154.4102,102.2969 1154.4102,102.2969 C1154.4102,102.2969 1136.4102,102.2969 1136.4102,92.2969 L1136.4102,66.2969" fill="#E2E2F0" style="stroke:#181818;stroke-width:0.5;"/><path d="M1136.4102,66.2969 C1136.4102,76.2969 1154.4102,76.2969 1154.4102,76.2969 C1154.4102,76.2969 1172.4102,76.2969 1172.4102,66.2969" fill="none" style="stroke:#181818;stroke-width:0.5;"/></g><g class="participant participant-tail" data-participant="db"><text fill="#000000" font-family="sans-serif" font-size="14" lengthAdjust="spacing" textLength="34.5078" x="1134.1563" y="454.917">JSON</text><path d="M1136.4102,468.2188 C1136.4102,458.2188 1154.4102,458.2188 1154.4102,458.2188 C1154.4102,458.2188 1172.4102,458.2188 1172.4102,468.2188 L1172.4102,494.2188 C1172.4102,504.2188 1154.4102,504.2188 1154.4102,504.2188 C1154.4102,504.2188 1136.4102,504.2188 1136.4102,494.2188 L1136.4102,468.2188" fill="#E2E2F0" style="stroke:#181818;stroke-width:0.5;"/><path d="M1136.4102,468.2188 C1136.4102,478.2188 1154.4102,478.2188 1154.4102,478.2188 C1154.4102,478.2188 1172.4102,478.2188 1172.4102,468.2188" fill="none" style="stroke:#181818;stroke-width:0.5;"/></g><g><title>DialogForm</title><rect fill="#FFFFFF" height="275.1953" style="stroke:#181818;stroke-width:1;" width="10" x="291.1289" y="149.7266"/></g><g><title>EspacioController</title><rect fill="#FFFFFF" height="216.9297" style="stroke:#181818;stroke-width:1;" width="10" x="500.1357" y="178.8594"/></g><g><title>GestionEspacioService</title><rect fill="#FFFFFF" height="158.6641" style="stroke:#181818;stroke-width:1;" width="10" x="771.7495" y="207.9922"/></g><g><title>EspacioRepository</title><rect fill="#FFFFFF" height="58.2656" style="stroke:#181818;stroke-width:1;" width="10" x="931.7007" y="279.2578"/></g><g class="message" data-participant-1="admin" data-participant-2="view"><polygon fill="#181818" points="279.1289,145.7266,289.1289,149.7266,279.1289,153.7266,283.1289,149.7266" style="stroke:#181818;stroke-width:1;"/><line style="stroke:#181818;stroke-width:1;" x1="57.54" x2="285.1289" y1="149.7266" y2="149.7266"/><text fill="#000000" font-family="sans-serif" font-size="13" lengthAdjust="spacing" textLength="214.5889" x="64.54" y="144.6606">Modifica datos y pulsa "Guardar"</text></g><g class="message" data-participant-1="view" data-participant-2="controller"><polygon fill="#181818" points="488.1357,174.8594,498.1357,178.8594,488.1357,182.8594,492.1357,178.8594" style="stroke:#181818;stroke-width:1;"/><line style="stroke:#181818;stroke-width:1;" x1="301.1289" x2="494.1357" y1="178.8594" y2="178.8594"/><text fill="#000000" font-family="sans-serif" font-size="13" lengthAdjust="spacing" textLength="180.0068" x="308.1289" y="173.7935">actualizarEspacio(id, datos)</text></g><g class="message" data-participant-1="controller" data-participant-2="service"><polygon fill="#181818" points="759.7495,203.9922,769.7495,207.9922,759.7495,211.9922,763.7495,207.9922" style="stroke:#181818;stroke-width:1;"/><line style="stroke:#181818;stroke-width:1;" x1="510.1357" x2="765.7495" y1="207.9922" y2="207.9922"/><text fill="#000000" font-family="sans-serif" font-size="13" lengthAdjust="spacing" textLength="242.6138" x="517.1357" y="202.9263">actualizarEspacioCompleto(id, datos)</text></g><g class="message" data-participant-1="service" data-participant-2="service"><line style="stroke:#181818;stroke-width:1;" x1="781.7495" x2="823.7495" y1="237.125" y2="237.125"/><line style="stroke:#181818;stroke-width:1;" x1="823.7495" x2="823.7495" y1="237.125" y2="250.125"/><line style="stroke:#181818;stroke-width:1;" x1="782.7495" x2="823.7495" y1="250.125" y2="250.125"/><polygon fill="#181818" points="792.7495,246.125,782.7495,250.125,792.7495,254.125,788.7495,250.125" style="stroke:#181818;stroke-width:1;"/><text fill="#000000" font-family="sans-serif" font-size="13" lengthAdjust="spacing" textLength="85.8203" x="788.7495" y="232.0591">Validar datos</text></g><g class="message" data-participant-1="service" data-participant-2="repository"><polygon fill="#181818" points="919.7007,275.2578,929.7007,279.2578,919.7007,283.2578,923.7007,279.2578" style="stroke:#181818;stroke-width:1;"/><line style="stroke:#181818;stroke-width:1;" x1="781.7495" x2="925.7007" y1="279.2578" y2="279.2578"/><text fill="#000000" font-family="sans-serif" font-size="13" lengthAdjust="spacing" textLength="116.5557" x="788.7495" y="274.1919">save(universidad)</text></g><g class="message" data-participant-1="repository" data-participant-2="db"><polygon fill="#181818" points="1142.4102,304.3906,1152.4102,308.3906,1142.4102,312.3906,1146.4102,308.3906" style="stroke:#181818;stroke-width:1;"/><line style="stroke:#181818;stroke-width:1;" x1="941.7007" x2="1148.4102" y1="308.3906" y2="308.3906"/><text fill="#000000" font-family="sans-serif" font-size="13" lengthAdjust="spacing" textLength="188.7095" x="948.7007" y="303.3247">Sobrescribir universidad.json</text></g><g class="message" data-participant-1="repository" data-participant-2="service"><polygon fill="#181818" points="792.7495,333.5234,782.7495,337.5234,792.7495,341.5234,788.7495,337.5234" style="stroke:#181818;stroke-width:1;"/><line style="stroke:#181818;stroke-width:1;stroke-dasharray:2,2;" x1="786.7495" x2="935.7007" y1="337.5234" y2="337.5234"/><text fill="#000000" font-family="sans-serif" font-size="13" lengthAdjust="spacing" textLength="98.6045" x="798.7495" y="332.4575">boolean (éxito)</text></g><g class="message" data-participant-1="service" data-participant-2="controller"><polygon fill="#181818" points="521.1357,362.6563,511.1357,366.6563,521.1357,370.6563,517.1357,366.6563" style="stroke:#181818;stroke-width:1;"/><line style="stroke:#181818;stroke-width:1;stroke-dasharray:2,2;" x1="515.1357" x2="775.7495" y1="366.6563" y2="366.6563"/><text fill="#000000" font-family="sans-serif" font-size="13" lengthAdjust="spacing" textLength="98.6045" x="527.1357" y="361.5903">boolean (éxito)</text></g><g class="message" data-participant-1="controller" data-participant-2="view"><polygon fill="#181818" points="312.1289,391.7891,302.1289,395.7891,312.1289,399.7891,308.1289,395.7891" style="stroke:#181818;stroke-width:1;"/><line style="stroke:#181818;stroke-width:1;stroke-dasharray:2,2;" x1="306.1289" x2="504.1357" y1="395.7891" y2="395.7891"/><text fill="#000000" font-family="sans-serif" font-size="13" lengthAdjust="spacing" textLength="64.9238" x="318.1289" y="390.7231">Resultado</text></g><g class="message" data-participant-1="view" data-participant-2="admin"><polygon fill="#181818" points="68.54,420.9219,58.54,424.9219,68.54,428.9219,64.54,424.9219" style="stroke:#181818;stroke-width:1;"/><line style="stroke:#181818;stroke-width:1;stroke-dasharray:2,2;" x1="62.54" x2="295.1289" y1="424.9219" y2="424.9219"/><text fill="#000000" font-family="sans-serif" font-size="13" lengthAdjust="spacing" textLength="208.2412" x="74.54" y="419.856">Cerrar diálogo y refrescar mapa</text></g><!--SRC=[VL91JkGm4Bpd5QsS1Wds0JciX0OM2Mb1OYJk7Rj1ZPnqr7Qo3B_Xo3lu6EqaJ0ACzfBOSLMbgjo9Ko0eBnWV5Hi4Jx0ZrrFh6E4CBZqdLBYC7JgMiYZG9L4eptt3BSUaw4LBm0YOlnIrzAr7tO-AGHx_Y3RZyS3qht3I9fK0vQotdVQ19Wbts2x8Aug9fPq9EzA17OteEAr_YDvH9v7DvNw4wM5RU4nOOxIurxlRc_7KrnOfEuUptwF72lwAvmTsLWKcYR27hWyHpKcFQj7AN04Fc6ZAb1-Pl9Ylm10z1dv1dJrjs9zEUYSB_MTSMsQfETaHdQqqNQ1qNE-paFdzHUdUPCpyn5aZbdegY3ZGfczv88s6zYljLOlBClDzNS5EQgNeb6jMMF5_FKLfl-3NbcgHGDZ2vltjsOvF2a_7VdVm-gtZ_z6_ZSPOw-5-xoZs8TdShXchkvWkrE3ZN5Im9TNS7B-_sa2B3OJIGyvh7nliS2sJkHy0]--></g></svg>