<?plantuml 1.2026.1?><svg xmlns="http://www.w3.org/2000/svg" xmlns:xlink="http://www.w3.org/1999/xlink" contentStyleType="text/css" data-diagram-type="SEQUENCE" height="833px" preserveAspectRatio="none" style="width:968px;height:833px;background:#FEFEFE;" version="1.1" viewBox="0 0 968 833" width="968px" zoomAndPan="magnify"><defs/><g><rect fill="#FEFEFE" height="833" style="stroke:none;stroke-width:1;" width="968" x="0" y="0"/><g><title>VerPreguntasView</title><rect fill="#FFFFFF" height="599.8984" style="stroke:#181818;stroke-width:1;" width="10" x="259.8337" y="147.4141"/></g><g><title>VerPreguntasView</title><rect fill="#FFFFFF" height="134.0234" style="stroke:#181818;stroke-width:1;" width="10" x="264.8337" y="402.6563"/></g><g><title>PreguntasController</title><rect fill="#FFFFFF" height="134.0234" style="stroke:#181818;stroke-width:1;" width="10" x="479.8884" y="174.2188"/></g><g><title>PreguntasController</title><rect fill="#FFFFFF" height="80.4141" style="stroke:#181818;stroke-width:1;" width="10" x="479.8884" y="429.4609"/></g><g><title>PreguntasService</title><rect fill="#FFFFFF" height="80.4141" style="stroke:#181818;stroke-width:1;" width="10" x="629.1584" y="201.0234"/></g><g><title>PreguntasService</title><rect fill="#FFFFFF" height="26.8047" style="stroke:#181818;stroke-width:1;" width="10" x="629.1584" y="456.2656"/></g><g><title>Pregunta</title><rect fill="#FFFFFF" height="26.8047" style="stroke:#181818;stroke-width:1;" width="10" x="923.4744" y="227.8281"/></g><g class="participant-lifeline" data-entity-uid="part1" data-qualified-name="Docente" id="part1-lifeline"><g><title>Docente</title><rect fill="#000000" fill-opacity="0.00000" height="678.5078" width="8" x="27.0339" y="77.8047"/><line style="stroke:#181818;stroke-width:0.5;stroke-dasharray:5,5;" x1="31" x2="31" y1="77.8047" y2="756.3125"/></g></g><g class="participant-lifeline" data-entity-uid="part2" data-qualified-name="VerPreguntasView" id="part2-lifeline"><g><title>VerPreguntasView</title><rect fill="#000000" fill-opacity="0.00000" height="678.5078" width="8" x="260.8337" y="77.8047"/><line style="stroke:#181818;stroke-width:0.5;stroke-dasharray:5,5;" x1="264.4368" x2="264.4368" y1="77.8047" y2="756.3125"/></g></g><g class="participant-lifeline" data-entity-uid="part3" data-qualified-name="PreguntasController" id="part3-lifeline"><g><title>PreguntasController</title><rect fill="#000000" fill-opacity="0.00000" height="678.5078" width="8" x="480.8884" y="77.8047"/><line style="stroke:#181818;stroke-width:0.5;stroke-dasharray:5,5;" x1="483.8965" x2="483.8965" y1="77.8047" y2="756.3125"/></g></g><g class="participant-lifeline" data-entity-uid="part4" data-qualified-name="PreguntasService" id="part4-lifeline"><g><title>PreguntasService</title><rect fill="#000000" fill-opacity="0.00000" height="678.5078" width="8" x="630.1584" y="77.8047"/><line style="stroke:#181818;stroke-width:0.5;stroke-dasharray:5,5;" x1="634.0146" x2="634.0146" y1="77.8047" y2="756.3125"/></g></g><g class="participant-lifeline" data-entity-uid="part5" data-qualified-name="Pregunta" id="part5-lifeline"><g><title>Pregunta</title><rect fill="#000000" fill-opacity="0.00000" height="678.5078" width="8" x="924.4744" y="77.8047"/><line style="stroke:#181818;stroke-width:0.5;stroke-dasharray:5,5;" x1="927.5229" x2="927.5229" y1="77.8047" y2="756.3125"/></g></g><g class="participant participant-head" data-entity-uid="part1" data-qualified-name="Docente" id="part1-head"><text fill="#000000" font-family="Arial" font-size="11" lengthAdjust="spacing" textLength="46.0679" x="5" y="75.2104">Docente</text><ellipse cx="31.0339" cy="13.5" fill="#E2E2F0" rx="8" ry="8" style="stroke:#181818;stroke-width:0.5;"/><path d="M31.0339,21.5 L31.0339,48.5 M18.0339,29.5 L44.0339,29.5 M31.0339,48.5 L18.0339,63.5 M31.0339,48.5 L44.0339,63.5" fill="none" style="stroke:#181818;stroke-width:0.5;"/></g><g class="participant participant-tail" data-entity-uid="part1" data-qualified-name="Docente" id="part1-tail"><text fill="#000000" font-family="Arial" font-size="11" lengthAdjust="spacing" textLength="46.0679" x="5" y="765.5229">Docente</text><ellipse cx="31.0339" cy="776.6172" fill="#E2E2F0" rx="8" ry="8" style="stroke:#181818;stroke-width:0.5;"/><path d="M31.0339,784.6172 L31.0339,811.6172 M18.0339,792.6172 L44.0339,792.6172 M31.0339,811.6172 L18.0339,826.6172 M31.0339,811.6172 L44.0339,826.6172" fill="none" style="stroke:#181818;stroke-width:0.5;"/></g><g class="participant participant-head" data-entity-uid="part2" data-qualified-name="VerPreguntasView" id="part2-head"><text fill="#000000" font-family="Arial" font-size="11" lengthAdjust="spacing" textLength="100.7939" x="211.4368" y="75.2104">VerPreguntasView</text><path d="M244.3337,37 L244.3337,61 M244.3337,49 L261.3337,49" fill="none" style="stroke:#181818;stroke-width:0.5;"/><ellipse cx="273.3337" cy="49" fill="#E2E2F0" rx="12" ry="12" style="stroke:#181818;stroke-width:0.5;"/></g><g class="participant participant-tail" data-entity-uid="part2" data-qualified-name="VerPreguntasView" id="part2-tail"><text fill="#000000" font-family="Arial" font-size="11" lengthAdjust="spacing" textLength="100.7939" x="211.4368" y="765.5229">VerPreguntasView</text><path d="M244.3337,772.1172 L244.3337,796.1172 M244.3337,784.1172 L261.3337,784.1172" fill="none" style="stroke:#181818;stroke-width:0.5;"/><ellipse cx="273.3337" cy="784.1172" fill="#E2E2F0" rx="12" ry="12" style="stroke:#181818;stroke-width:0.5;"/></g><g class="participant participant-head" data-entity-uid="part3" data-qualified-name="PreguntasController" id="part3-head"><text fill="#000000" font-family="Arial" font-size="11" lengthAdjust="spacing" textLength="109.9839" x="426.8965" y="75.2104">PreguntasController</text><ellipse cx="484.8884" cy="49" fill="#E2E2F0" rx="12" ry="12" style="stroke:#181818;stroke-width:0.5;"/><polygon fill="#181818" points="480.8884,37,486.8884,32,484.8884,37,486.8884,42,480.8884,37" style="stroke:#181818;stroke-width:1;"/></g><g class="participant participant-tail" data-entity-uid="part3" data-qualified-name="PreguntasController" id="part3-tail"><text fill="#000000" font-family="Arial" font-size="11" lengthAdjust="spacing" textLength="109.9839" x="426.8965" y="765.5229">PreguntasController</text><ellipse cx="484.8884" cy="784.1172" fill="#E2E2F0" rx="12" ry="12" style="stroke:#181818;stroke-width:0.5;"/><polygon fill="#181818" points="480.8884,772.1172,486.8884,767.1172,484.8884,772.1172,486.8884,777.1172,480.8884,772.1172" style="stroke:#181818;stroke-width:1;"/></g><g class="participant participant-head" data-entity-uid="part4" data-qualified-name="PreguntasService" id="part4-head"><text fill="#000000" font-family="Arial" font-size="11" lengthAdjust="spacing" textLength="96.2876" x="583.0146" y="75.2104">PreguntasService</text><ellipse cx="634.1584" cy="49" fill="#E2E2F0" rx="12" ry="12" style="stroke:#181818;stroke-width:0.5;"/><line style="stroke:#181818;stroke-width:0.5;" x1="622.1584" x2="646.1584" y1="63" y2="63"/></g><g class="participant participant-tail" data-entity-uid="part4" data-qualified-name="PreguntasService" id="part4-tail"><text fill="#000000" font-family="Arial" font-size="11" lengthAdjust="spacing" textLength="96.2876" x="583.0146" y="765.5229">PreguntasService</text><ellipse cx="634.1584" cy="784.1172" fill="#E2E2F0" rx="12" ry="12" style="stroke:#181818;stroke-width:0.5;"/><line style="stroke:#181818;stroke-width:0.5;" x1="622.1584" x2="646.1584" y1="798.1172" y2="798.1172"/></g><g class="participant participant-head" data-entity-uid="part5" data-qualified-name="Pregunta" id="part5-head"><text fill="#000000" font-family="Arial" font-size="11" lengthAdjust="spacing" textLength="49.9028" x="900.5229" y="75.2104">Pregunta</text><ellipse cx="928.4744" cy="49" fill="#E2E2F0" rx="12" ry="12" style="stroke:#181818;stroke-width:0.5;"/><line style="stroke:#181818;stroke-width:0.5;" x1="916.4744" x2="940.4744" y1="63" y2="63"/></g><g class="participant participant-tail" data-entity-uid="part5" data-qualified-name="Pregunta" id="part5-tail"><text fill="#000000" font-family="Arial" font-size="11" lengthAdjust="spacing" textLength="49.9028" x="900.5229" y="765.5229">Pregunta</text><ellipse cx="928.4744" cy="784.1172" fill="#E2E2F0" rx="12" ry="12" style="stroke:#181818;stroke-width:0.5;"/><line style="stroke:#181818;stroke-width:0.5;" x1="916.4744" x2="940.4744" y1="798.1172" y2="798.1172"/></g><g><title>VerPreguntasView</title><rect fill="#FFFFFF" height="599.8984" style="stroke:#181818;stroke-width:1;" width="10" x="259.8337" y="147.4141"/></g><g><title>VerPreguntasView</title><rect fill="#FFFFFF" height="134.0234" style="stroke:#181818;stroke-width:1;" width="10" x="264.8337" y="402.6563"/></g><g><title>PreguntasController</title><rect fill="#FFFFFF" height="134.0234" style="stroke:#181818;stroke-width:1;" width="10" x="479.8884" y="174.2188"/></g><g><title>PreguntasController</title><rect fill="#FFFFFF" height="80.4141" style="stroke:#181818;stroke-width:1;" width="10" x="479.8884" y="429.4609"/></g><g><title>PreguntasService</title><rect fill="#FFFFFF" height="80.4141" style="stroke:#181818;stroke-width:1;" width="10" x="629.1584" y="201.0234"/></g><g><title>PreguntasService</title><rect fill="#FFFFFF" height="26.8047" style="stroke:#181818;stroke-width:1;" width="10" x="629.1584" y="456.2656"/></g><g><title>Pregunta</title><rect fill="#FFFFFF" height="26.8047" style="stroke:#181818;stroke-width:1;" width="10" x="923.4744" y="227.8281"/></g><rect fill="#EEEEEE" height="3" style="stroke:#EEEEEE;stroke-width:1;" width="961.4258" x="0" y="107.207"/><line style="stroke:#000000;stroke-width:1;" x1="0" x2="961.4258" y1="107.207" y2="107.207"/><line style="stroke:#000000;stroke-width:1;" x1="0" x2="961.4258" y1="110.207" y2="110.207"/><rect fill="#EEEEEE" height="20.8047" style="stroke:#000000;stroke-width:2;" width="195.9995" x="382.7131" y="97.8047"/><text fill="#000000" font-family="Arial" font-size="11" font-weight="bold" lengthAdjust="spacing" textLength="178.1699" x="388.7131" y="112.0151">Flujo Principal - Carga Inicial</text><g class="message" data-entity-1="part1" data-entity-2="part2" id="msg1"><polygon fill="#181818" points="247.8337,143.4141,257.8337,147.4141,247.8337,151.4141,251.8337,147.4141" style="stroke:#181818;stroke-width:1;"/><line style="stroke:#181818;stroke-width:1;" x1="31.0339" x2="253.8337" y1="147.4141" y2="147.4141"/><text fill="#000000" font-family="Arial" font-size="11" lengthAdjust="spacing" textLength="119.5068" x="38.0339" y="142.8198">solicita ver preguntas</text></g><g class="message" data-entity-1="part2" data-entity-2="part3" id="msg2"><polygon fill="#181818" points="467.8884,170.2188,477.8884,174.2188,467.8884,178.2188,471.8884,174.2188" style="stroke:#181818;stroke-width:1;"/><line style="stroke:#181818;stroke-width:1;" x1="269.8337" x2="473.8884" y1="174.2188" y2="174.2188"/><text fill="#000000" font-family="Arial" font-size="11" lengthAdjust="spacing" textLength="43.103" x="276.8337" y="169.6245">findAll()</text></g><g class="message" data-entity-1="part3" data-entity-2="part4" id="msg3"><polygon fill="#181818" points="617.1584,197.0234,627.1584,201.0234,617.1584,205.0234,621.1584,201.0234" style="stroke:#181818;stroke-width:1;"/><line style="stroke:#181818;stroke-width:1;" x1="489.8884" x2="623.1584" y1="201.0234" y2="201.0234"/><text fill="#000000" font-family="Arial" font-size="11" lengthAdjust="spacing" textLength="74.4219" x="496.8884" y="196.4292">findAll(filters)</text></g><g class="message" data-entity-1="part4" data-entity-2="part5" id="msg4"><polygon fill="#181818" points="911.4744,223.8281,921.4744,227.8281,911.4744,231.8281,915.4744,227.8281" style="stroke:#181818;stroke-width:1;"/><line style="stroke:#181818;stroke-width:1;" x1="639.1584" x2="917.4744" y1="227.8281" y2="227.8281"/><text fill="#000000" font-family="Arial" font-size="11" lengthAdjust="spacing" textLength="265.3159" x="646.1584" y="223.2339">consulta preguntas con respuestas y asignatura</text></g><g class="message" data-entity-1="part5" data-entity-2="part4" id="msg5"><polygon fill="#181818" points="650.1584,250.6328,640.1584,254.6328,650.1584,258.6328,646.1584,254.6328" style="stroke:#181818;stroke-width:1;"/><line style="stroke:#181818;stroke-width:1;stroke-dasharray:2,2;" x1="644.1584" x2="927.4744" y1="254.6328" y2="254.6328"/><text fill="#000000" font-family="Arial" font-size="11" lengthAdjust="spacing" textLength="173.7925" x="656.1584" y="250.0386">preguntas con datos completos</text></g><g class="message" data-entity-1="part4" data-entity-2="part3" id="msg6"><polygon fill="#181818" points="500.8884,277.4375,490.8884,281.4375,500.8884,285.4375,496.8884,281.4375" style="stroke:#181818;stroke-width:1;"/><line style="stroke:#181818;stroke-width:1;stroke-dasharray:2,2;" x1="494.8884" x2="633.1584" y1="281.4375" y2="281.4375"/><text fill="#000000" font-family="Arial" font-size="11" lengthAdjust="spacing" textLength="99.623" x="506.8884" y="276.8433">lista de preguntas</text></g><g class="message" data-entity-1="part3" data-entity-2="part2" id="msg7"><polygon fill="#181818" points="280.8337,304.2422,270.8337,308.2422,280.8337,312.2422,276.8337,308.2422" style="stroke:#181818;stroke-width:1;"/><line style="stroke:#181818;stroke-width:1;stroke-dasharray:2,2;" x1="274.8337" x2="483.8884" y1="308.2422" y2="308.2422"/><text fill="#000000" font-family="Arial" font-size="11" lengthAdjust="spacing" textLength="76.9731" x="286.8337" y="303.6479">{ preguntas }</text></g><g class="message" data-entity-1="part2" data-entity-2="part1" id="msg8"><polygon fill="#181818" points="42.0339,331.0469,32.0339,335.0469,42.0339,339.0469,38.0339,335.0469" style="stroke:#181818;stroke-width:1;"/><line style="stroke:#181818;stroke-width:1;stroke-dasharray:2,2;" x1="36.0339" x2="258.8337" y1="335.0469" y2="335.0469"/><text fill="#000000" font-family="Arial" font-size="11" lengthAdjust="spacing" textLength="199.7456" x="48.0339" y="330.4526">presenta tabla con filtros y acciones</text></g><rect fill="#EEEEEE" height="3" style="stroke:#EEEEEE;stroke-width:1;" width="961.4258" x="0" y="362.4492"/><line style="stroke:#000000;stroke-width:1;" x1="0" x2="961.4258" y1="362.4492" y2="362.4492"/><line style="stroke:#000000;stroke-width:1;" x1="0" x2="961.4258" y1="365.4492" y2="365.4492"/><rect fill="#EEEEEE" height="20.8047" style="stroke:#000000;stroke-width:2;" width="182.3569" x="389.5344" y="353.0469"/><text fill="#000000" font-family="Arial" font-size="11" font-weight="bold" lengthAdjust="spacing" textLength="164.5273" x="395.5344" y="367.2573">Flujo Alternativo - Filtrado</text><g class="message" data-entity-1="part1" data-entity-2="part2" id="msg9"><polygon fill="#181818" points="252.8337,398.6563,262.8337,402.6563,252.8337,406.6563,256.8337,402.6563" style="stroke:#181818;stroke-width:1;"/><line style="stroke:#181818;stroke-width:1;" x1="31.0339" x2="258.8337" y1="402.6563" y2="402.6563"/><text fill="#000000" font-family="Arial" font-size="11" lengthAdjust="spacing" textLength="204.7998" x="38.0339" y="398.062">aplica filtros y pulsa "Buscar / Filtrar"</text></g><g class="message" data-entity-1="part2" data-entity-2="part3" id="msg10"><polygon fill="#181818" points="467.8884,425.4609,477.8884,429.4609,467.8884,433.4609,471.8884,429.4609" style="stroke:#181818;stroke-width:1;"/><line style="stroke:#181818;stroke-width:1;" x1="274.8337" x2="473.8884" y1="429.4609" y2="429.4609"/><text fill="#000000" font-family="Arial" font-size="11" lengthAdjust="spacing" textLength="186.0547" x="281.8337" y="424.8667">findAll(tema, dificultad, bateriaId)</text></g><g class="message" data-entity-1="part3" data-entity-2="part4" id="msg11"><polygon fill="#181818" points="617.1584,452.2656,627.1584,456.2656,617.1584,460.2656,621.1584,456.2656" style="stroke:#181818;stroke-width:1;"/><line style="stroke:#181818;stroke-width:1;" x1="489.8884" x2="623.1584" y1="456.2656" y2="456.2656"/><text fill="#000000" font-family="Arial" font-size="11" lengthAdjust="spacing" textLength="74.3843" x="496.8884" y="451.6714">findAll(filtros)</text></g><g class="message" data-entity-1="part4" data-entity-2="part3" id="msg12"><polygon fill="#181818" points="500.8884,479.0703,490.8884,483.0703,500.8884,487.0703,496.8884,483.0703" style="stroke:#181818;stroke-width:1;"/><line style="stroke:#181818;stroke-width:1;stroke-dasharray:2,2;" x1="494.8884" x2="633.1584" y1="483.0703" y2="483.0703"/><text fill="#000000" font-family="Arial" font-size="11" lengthAdjust="spacing" textLength="65.6777" x="506.8884" y="478.4761">lista filtrada</text></g><g class="message" data-entity-1="part3" data-entity-2="part2" id="msg13"><polygon fill="#181818" points="285.8337,505.875,275.8337,509.875,285.8337,513.875,281.8337,509.875" style="stroke:#181818;stroke-width:1;"/><line style="stroke:#181818;stroke-width:1;stroke-dasharray:2,2;" x1="279.8337" x2="483.8884" y1="509.875" y2="509.875"/><text fill="#000000" font-family="Arial" font-size="11" lengthAdjust="spacing" textLength="125.4849" x="291.8337" y="505.2808">{ preguntas filtradas }</text></g><g class="message" data-entity-1="part2" data-entity-2="part1" id="msg14"><polygon fill="#181818" points="42.0339,532.6797,32.0339,536.6797,42.0339,540.6797,38.0339,536.6797" style="stroke:#181818;stroke-width:1;"/><line style="stroke:#181818;stroke-width:1;stroke-dasharray:2,2;" x1="36.0339" x2="258.8337" y1="536.6797" y2="536.6797"/><text fill="#000000" font-family="Arial" font-size="11" lengthAdjust="spacing" textLength="165.0591" x="48.0339" y="532.0854">actualiza tabla con resultados</text></g><rect fill="#EEEEEE" height="3" style="stroke:#EEEEEE;stroke-width:1;" width="961.4258" x="0" y="564.082"/><line style="stroke:#000000;stroke-width:1;" x1="0" x2="961.4258" y1="564.082" y2="564.082"/><line style="stroke:#000000;stroke-width:1;" x1="0" x2="961.4258" y1="567.082" y2="567.082"/><rect fill="#EEEEEE" height="20.8047" style="stroke:#000000;stroke-width:2;" width="242.395" x="359.5154" y="554.6797"/><text fill="#000000" font-family="Arial" font-size="11" font-weight="bold" lengthAdjust="spacing" textLength="224.5654" x="365.5154" y="568.8901">Flujo Alternativo - Error de Consulta</text><g class="message" data-entity-1="part1" data-entity-2="part2" id="msg15"><polygon fill="#181818" points="247.8337,600.2891,257.8337,604.2891,247.8337,608.2891,251.8337,604.2891" style="stroke:#181818;stroke-width:1;"/><line style="stroke:#181818;stroke-width:1;" x1="31.0339" x2="253.8337" y1="604.2891" y2="604.2891"/><text fill="#000000" font-family="Arial" font-size="11" lengthAdjust="spacing" textLength="119.5068" x="38.0339" y="599.6948">solicita ver preguntas</text></g><g class="message" data-entity-1="part2" data-entity-2="part3" id="msg16"><polygon fill="#181818" points="472.8884,627.0938,482.8884,631.0938,472.8884,635.0938,476.8884,631.0938" style="stroke:#181818;stroke-width:1;"/><line style="stroke:#181818;stroke-width:1;" x1="269.8337" x2="478.8884" y1="631.0938" y2="631.0938"/><text fill="#000000" font-family="Arial" font-size="11" lengthAdjust="spacing" textLength="43.103" x="276.8337" y="626.4995">findAll()</text></g><g class="message" data-entity-1="part3" data-entity-2="part4" id="msg17"><polygon fill="#181818" points="622.1584,653.8984,632.1584,657.8984,622.1584,661.8984,626.1584,657.8984" style="stroke:#181818;stroke-width:1;"/><line style="stroke:#181818;stroke-width:1;" x1="484.8884" x2="628.1584" y1="657.8984" y2="657.8984"/><text fill="#000000" font-family="Arial" font-size="11" lengthAdjust="spacing" textLength="74.4219" x="491.8884" y="653.3042">findAll(filters)</text></g><g class="message" data-entity-1="part4" data-entity-2="part3" id="msg18"><polygon fill="#181818" points="495.8884,680.7031,485.8884,684.7031,495.8884,688.7031,491.8884,684.7031" style="stroke:#181818;stroke-width:1;"/><line style="stroke:#181818;stroke-width:1;stroke-dasharray:2,2;" x1="489.8884" x2="633.1584" y1="684.7031" y2="684.7031"/><text fill="#000000" font-family="Arial" font-size="11" lengthAdjust="spacing" textLength="125.27" x="501.8884" y="680.1089">error de base de datos</text></g><g class="message" data-entity-1="part3" data-entity-2="part2" id="msg19"><polygon fill="#181818" points="280.8337,707.5078,270.8337,711.5078,280.8337,715.5078,276.8337,711.5078" style="stroke:#181818;stroke-width:1;"/><line style="stroke:#181818;stroke-width:1;stroke-dasharray:2,2;" x1="274.8337" x2="483.8884" y1="711.5078" y2="711.5078"/><text fill="#000000" font-family="Arial" font-size="11" lengthAdjust="spacing" textLength="27.0649" x="286.8337" y="706.9136">error</text></g><g class="message" data-entity-1="part2" data-entity-2="part1" id="msg20"><polygon fill="#181818" points="42.0339,734.3125,32.0339,738.3125,42.0339,742.3125,38.0339,738.3125" style="stroke:#181818;stroke-width:1;"/><line style="stroke:#181818;stroke-width:1;stroke-dasharray:2,2;" x1="36.0339" x2="258.8337" y1="738.3125" y2="738.3125"/><text fill="#000000" font-family="Arial" font-size="11" lengthAdjust="spacing" textLength="143.8164" x="48.0339" y="733.7183">muestra mensaje de error</text></g><?plantuml-src jLHDRzim3BthLn3TPGCQ3Bq6o80iQu1UXW45UcTaEc0hImObPqY7_VTHpfSJE-sQhV31DYK-FJu-CJwnhr6mWWNQfwM4nXUpu8B0X_bjVapSxoYenCQbUV3fErO4Ks5qm-lt_4nmSsCCsgHOtu8bdyWiCZpA6Xv8VWWj6vymFZ3zD5QJ93ZOHsURW2CnciffVLYw9rcnfTEuCPC9p5tp63J4tdAD3aOmGraYt7csoXOc4sEsR63qfSTZ334utPaGLYHGxzPo7Rn2JUenFmras84gnb2oBwREVVnq01kgTY1s1Bcj_e1NiaiaSGXsfzHfe0iu1jK-Qj_mK6uEWL2i6uhvTmqOUUanDOBzO_RmC1eaUWnRO0hvgweTwPSfw3pWWUyvKHqhGNLUfrK3W7qXkk8E-k1NX_RlGSnEp_eUKCojpThw8sLv4YuSjYBadabeXRMMWwVOSUyqzrF5vbLG_yxpLYp2wzR5MgsB7UowSH7XwciJBGfytaB9rVzqSw8Ahw7WactsK76jWqJfCzuLxs5qBUnjHd_PEEL6N7m7q-oW_za-cjgWu-UkVzHHhTh7zwVNpNEUkXNHgQotPhQx-fVEnGkct-K3xk-xIxi25nWflzkfyuPEjW2lDARAqr4GAl8H7zjZDcb_0000?></g></svg>