<svg xmlns="http://www.w3.org/2000/svg" xmlns:xlink="http://www.w3.org/1999/xlink" contentStyleType="text/css" data-diagram-type="DESCRIPTION" height="523px" preserveAspectRatio="none" style="width:1198px;height:523px;background:#FFFFFF;" version="1.1" viewBox="0 0 1198 523" width="1198px" zoomAndPan="magnify"><defs/><g><!--cluster editarGrado--><g class="cluster" data-entity="editarGrado" data-source-line="9" data-uid="ent0007" id="cluster_editarGrado"><path d="M8.5,106 L117.1387,106 A3.75,3.75 0 0 1 119.6387,108.5 L126.6387,128.2969 L684.5,128.2969 A2.5,2.5 0 0 1 687,130.7969 L687,513.5 A2.5,2.5 0 0 1 684.5,516 L8.5,516 A2.5,2.5 0 0 1 6,513.5 L6,108.5 A2.5,2.5 0 0 1 8.5,106" fill="none" style="stroke:#000000;stroke-width:1.5;"/><line style="stroke:#000000;stroke-width:1.5;" x1="6" x2="126.6387" y1="128.2969" y2="128.2969"/><text fill="#000000" font-family="sans-serif" font-size="14" font-weight="bold" lengthAdjust="spacing" textLength="107.6387" x="10" y="120.9951">editarGrado()</text></g><!--entity EditarGradoView--><g class="entity" data-entity="EditarGradoView" data-source-line="10" data-uid="ent0008" id="entity_EditarGradoView"><rect fill="#629EF9" height="36.2969" rx="2.5" ry="2.5" style="stroke:#181818;stroke-width:0.5;" width="137.6123" x="416" y="141"/><text fill="#000000" font-family="sans-serif" font-size="14" lengthAdjust="spacing" textLength="117.6123" x="426" y="163.9951">EditarGradoView</text></g><!--entity GradoController--><g class="entity" data-entity="GradoController" data-source-line="11" data-uid="ent0009" id="entity_GradoController"><rect fill="#B5BD68" height="36.2969" rx="2.5" ry="2.5" style="stroke:#181818;stroke-width:0.5;" width="131.8086" x="125" y="254"/><text fill="#000000" font-family="sans-serif" font-size="14" lengthAdjust="spacing" textLength="111.8086" x="135" y="276.9951">GradoController</text></g><!--entity GradoRepository--><g class="entity" data-entity="GradoRepository" data-source-line="12" data-uid="ent0010" id="entity_GradoRepository"><rect fill="#F2AC4E" height="36.2969" rx="2.5" ry="2.5" style="stroke:#181818;stroke-width:0.5;" width="137.708" x="132" y="367"/><text fill="#000000" font-family="sans-serif" font-size="14" lengthAdjust="spacing" textLength="117.708" x="142" y="389.9951">GradoRepository</text></g><!--entity Grado--><g class="entity" data-entity="Grado" data-source-line="13" data-uid="ent0011" id="entity_Grado"><rect fill="#F2AC4E" height="36.2969" rx="2.5" ry="2.5" style="stroke:#181818;stroke-width:0.5;" width="62.6357" x="169.5" y="464"/><text fill="#000000" font-family="sans-serif" font-size="14" lengthAdjust="spacing" textLength="42.6357" x="179.5" y="486.9951">Grado</text></g><!--entity GradosAbierto--><g class="entity" data-entity="GradosAbierto" data-source-line="3" data-uid="ent0002" id="entity_GradosAbierto"><rect fill="#CDEBA5" height="36.2969" rx="2.5" ry="2.5" style="stroke:#181818;stroke-width:0.5;" width="154.0117" x="223" y="7"/><text fill="#000000" font-family="sans-serif" font-size="14" lengthAdjust="spacing" textLength="134.0117" x="233" y="29.9951">:GRADOS_ABIERTO</text></g><!--entity GradoAbierto--><g class="entity" data-entity="GradoAbierto" data-source-line="4" data-uid="ent0003" id="entity_GradoAbierto"><rect fill="#CDEBA5" height="36.2969" rx="2.5" ry="2.5" style="stroke:#181818;stroke-width:0.5;" width="145.125" x="412.5" y="7"/><text fill="#000000" font-family="sans-serif" font-size="14" lengthAdjust="spacing" textLength="125.125" x="422.5" y="29.9951">:GRADO_ABIERTO</text></g><!--entity CrearGrado--><g class="entity" data-entity="CrearGrado" data-source-line="5" data-uid="ent0004" id="entity_CrearGrado"><rect fill="#CDEBA5" height="36.2969" rx="2.5" ry="2.5" style="stroke:#181818;stroke-width:0.5;" width="203.5859" x="593" y="7"/><text fill="#000000" font-family="sans-serif" font-size="14" lengthAdjust="spacing" textLength="183.5859" x="603" y="29.9951">:Collaboration CrearGrado</text></g><!--entity AbrirGrados--><g class="entity" data-entity="AbrirGrados" data-source-line="6" data-uid="ent0005" id="entity_AbrirGrados"><rect fill="#CDEBA5" height="36.2969" rx="2.5" ry="2.5" style="stroke:#181818;stroke-width:0.5;" width="206.2656" x="703" y="254"/><text fill="#000000" font-family="sans-serif" font-size="14" lengthAdjust="spacing" textLength="186.2656" x="713" y="276.9951">:Collaboration AbrirGrados</text></g><!--entity AsignarExamenes--><g class="entity" data-entity="AsignarExamenes" data-source-line="7" data-uid="ent0006" id="entity_AsignarExamenes"><rect fill="#CDEBA5" height="36.2969" rx="2.5" ry="2.5" style="stroke:#181818;stroke-width:0.5;" width="248.0674" x="944" y="254"/><text fill="#000000" font-family="sans-serif" font-size="14" lengthAdjust="spacing" textLength="228.0674" x="954" y="276.9951">:Collaboration AsignarExamenes</text></g><!--link GradosAbierto to EditarGradoView--><g class="link" data-entity-1="GradosAbierto" data-entity-2="EditarGradoView" data-source-line="16" data-uid="lnk12" id="link_GradosAbierto_EditarGradoView"><path d="M310.18,43.15 C321.44,62.11 338,90 338,90 C338,90 398.9141,118.1815 442.4641,138.3215" fill="none" id="GradosAbierto-to-EditarGradoView" style="stroke:#181818;stroke-width:1;"/><polygon fill="#181818" points="447.91,140.84,441.4202,133.4317,443.3718,138.7413,438.0622,140.6929,447.91,140.84" style="stroke:#181818;stroke-width:1;"/><text fill="#000000" font-family="sans-serif" font-size="13" lengthAdjust="spacing" textLength="137.8584" x="339" y="86.0669">editarGrado(gradoId)</text></g><!--link GradoAbierto to EditarGradoView--><g class="link" data-entity-1="GradoAbierto" data-entity-2="EditarGradoView" data-source-line="17" data-uid="lnk13" id="link_GradoAbierto_EditarGradoView"><path d="M485,43.26 C485,68.55 485,109.44 485,134.74" fill="none" id="GradoAbierto-to-EditarGradoView" style="stroke:#181818;stroke-width:1;"/><polygon fill="#181818" points="485,140.74,489,131.74,485,135.74,481,131.74,485,140.74" style="stroke:#181818;stroke-width:1;"/><text fill="#000000" font-family="sans-serif" font-size="13" lengthAdjust="spacing" textLength="137.8584" x="486" y="86.0669">editarGrado(gradoId)</text></g><!--link CrearGrado to EditarGradoView--><g class="link" data-entity-1="CrearGrado" data-entity-2="EditarGradoView" data-source-line="18" data-uid="lnk14" id="link_CrearGrado_EditarGradoView"><path d="M678.12,43.15 C659.46,62.11 632,90 632,90 C632,90 571.0859,118.1815 527.5359,138.3215" fill="none" id="CrearGrado-to-EditarGradoView" style="stroke:#181818;stroke-width:1;"/><polygon fill="#181818" points="522.09,140.84,531.9378,140.6929,526.6282,138.7413,528.5798,133.4317,522.09,140.84" style="stroke:#181818;stroke-width:1;"/><text fill="#000000" font-family="sans-serif" font-size="13" lengthAdjust="spacing" textLength="167.3813" x="648" y="86.0669">editarGrado(gradoNuevo)</text></g><!--link EditarGradoView to GradoController--><g class="link" data-entity-1="EditarGradoView" data-entity-2="GradoController" data-source-line="20" data-uid="lnk15" id="link_EditarGradoView_GradoController"><path d="M415.75,167.55 C293.92,180.84 54,207 54,207 C54,207 54,224 54,224 C54,224 96.3048,238.5127 135.4748,251.9527" fill="none" id="EditarGradoView-to-GradoController" style="stroke:#181818;stroke-width:1;"/><polygon fill="#181818" points="141.15,253.9,133.9354,247.1956,136.4207,252.2773,131.339,254.7626,141.15,253.9" style="stroke:#181818;stroke-width:1;"/><text fill="#000000" font-family="sans-serif" font-size="13" lengthAdjust="spacing" textLength="269.9912" x="55" y="220.0669">cargarGradoParaEdici&#243;n(gradoId) : Grado</text></g><!--link EditarGradoView to GradoController--><g class="link" data-entity-1="EditarGradoView" data-entity-2="GradoController" data-source-line="24" data-uid="lnk17" id="link_EditarGradoView_GradoController"><path d="M443.19,177.15 C396.99,196.11 329,224 329,224 C329,224 286.3496,238.5255 246.8896,251.9655" fill="none" id="EditarGradoView-to-GradoController-1" style="stroke:#181818;stroke-width:1;"/><polygon fill="#181818" points="241.21,253.9,251.019,254.7847,245.943,252.2879,248.4398,247.2119,241.21,253.9" style="stroke:#181818;stroke-width:1;"/><text fill="#000000" font-family="sans-serif" font-size="13" lengthAdjust="spacing" textLength="301.063" x="368" y="220.0669">modificarCampos(gradoId, cambios) : boolean</text></g><!--link GradoController to GradoRepository--><g class="link" data-entity-1="GradoController" data-entity-2="GradoRepository" data-source-line="22" data-uid="lnk16" id="link_GradoController_GradoRepository"><path d="M147.34,290.1 C113.03,303.54 71,320 71,320 C71,320 71,337 71,337 C71,337 110.8875,351.4198 148.0575,364.8598" fill="none" id="GradoController-to-GradoRepository" style="stroke:#181818;stroke-width:1;"/><polygon fill="#181818" points="153.7,366.9,146.5964,360.078,148.9979,365.1998,143.8761,367.6013,153.7,366.9" style="stroke:#181818;stroke-width:1;"/><text fill="#000000" font-family="sans-serif" font-size="13" lengthAdjust="spacing" textLength="196.3394" x="72" y="333.0669">obtenerPorId(gradoId) : Grado</text></g><!--link GradoController to GradoRepository--><g class="link" data-entity-1="GradoController" data-entity-2="GradoRepository" data-source-line="26" data-uid="lnk18" id="link_GradoController_GradoRepository"><path d="M221.07,290.23 C244.47,303.65 273,320 273,320 C273,320 273,337 273,337 C273,337 252.9737,350.0693 232.4237,363.4893" fill="none" id="GradoController-to-GradoRepository-1" style="stroke:#181818;stroke-width:1;"/><polygon fill="#181818" points="227.4,366.77,237.1226,365.1981,231.5864,364.0361,232.7484,358.4999,227.4,366.77" style="stroke:#181818;stroke-width:1;"/><text fill="#000000" font-family="sans-serif" font-size="13" lengthAdjust="spacing" textLength="176.3062" x="274" y="333.0669">actualizar(grado) : boolean</text></g><!--link GradoRepository to Grado--><g class="link" data-entity-1="GradoRepository" data-entity-2="Grado" data-source-line="28" data-uid="lnk19" id="link_GradoRepository_Grado"><path d="M201,403.42 C201,420.57 201,446.58 201,463.69" fill="none" id="GradoRepository-Grado" style="stroke:#181818;stroke-width:1;"/></g><!--link EditarGradoView to AbrirGrados--><g class="link" data-entity-1="EditarGradoView" data-entity-2="AbrirGrados" data-source-line="30" data-uid="lnk20" id="link_EditarGradoView_AbrirGrados"><path d="M554.13,176.84 C609.51,190.32 678,207 678,207 C678,207 728.4134,232.2067 766.3334,251.1667" fill="none" id="EditarGradoView-to-AbrirGrados" style="stroke:#181818;stroke-width:1;stroke-dasharray:7,7;"/><polygon fill="#181818" points="771.7,253.85,765.439,246.2474,767.2279,251.6139,761.8613,253.4028,771.7,253.85" style="stroke:#181818;stroke-width:1;"/><text fill="#000000" font-family="sans-serif" font-size="13" lengthAdjust="spacing" textLength="154.1655" x="709" y="220.0669">&#171;include&#187; abrirGrados()</text></g><!--link EditarGradoView to AsignarExamenes--><g class="link" data-entity-1="EditarGradoView" data-entity-2="AsignarExamenes" data-source-line="31" data-uid="lnk21" id="link_EditarGradoView_AsignarExamenes"><path d="M554.19,168.4 C665.5,181.92 872,207 872,207 C872,207 951.9664,233.1074 1010.0264,252.0674" fill="none" id="EditarGradoView-to-AsignarExamenes" style="stroke:#181818;stroke-width:1;stroke-dasharray:7,7;"/><polygon fill="#181818" points="1015.73,253.93,1008.4163,247.3338,1010.977,252.3779,1005.9329,254.9386,1015.73,253.93" style="stroke:#181818;stroke-width:1;"/><text fill="#000000" font-family="sans-serif" font-size="13" lengthAdjust="spacing" textLength="192.9814" x="920" y="220.0669">&#171;include&#187; asignarExamenes()</text></g><!--SRC=[bPFVRe8m5CRl-nGdxWQIwOMPPX9ZWeZ6csdSijlb01rfX9QKkiqjUwezmbvi1Td0-YUE2v93lz_Nh-VGVCruXX9JI1YdQfjHo4IoBGf290qLyZYXSELD_B7RWvOpMxcJnVsJEvxxguT52p27cSH8v6x0g5JYD7J8d4CyaIGO28cA2GwUf2XBfgJhyWBM3IJRYVCIRjINq3cBEKh_3LFAQUMm_usG3CCrnXHen5GLhD2r6hLbj-23W7uQU_Qx0tyw0B-MFJBwQgg2NX3rRtSjymHNKWUaqbHDkwvtu-zKAvg9d2aXj-TKv9EGlTb1kpqompZDGrbnyPv7DcdExnzOFRWBeRiDVH4s8OOIsf76ZOuu4AACAzLI_zGQ2jdt5__R7vpgvCH0opH6wnmGWTBpbKiXvz4HZuDCnoAb8cBFJ0VpCDNElpRNEciQC94NVe4G2KL-OIeCrGOJzevoPtReKAkrmwcqdSweUHKS60uP3vDDH4SZm7h1ie-Z-tV0mFSNBVi7]--></g></svg>