<svg xmlns="http://www.w3.org/2000/svg" xmlns:xlink="http://www.w3.org/1999/xlink" contentStyleType="text/css" height="1029px" preserveAspectRatio="none" style="width:1422px;height:1029px;background:#FFFFFF;" version="1.1" viewBox="0 0 1422 1029" width="1422px" zoomAndPan="magnify"><title>Diagrama de Secuencia - Importar Asignaturas (NestJS + Vue 3)</title><defs/><g><text fill="#000000" font-family="sans-serif" font-size="14" font-weight="bold" lengthAdjust="spacing" textLength="462.1709" x="480.9331" y="28.5352">Diagrama de Secuencia - Importar Asignaturas (NestJS + Vue 3)</text><rect fill="#FFFFFF" height="757.6504" style="stroke:#181818;stroke-width:1.0;" width="10" x="265.7593" y="165.5977"/><rect fill="#FFFFFF" height="427.6133" style="stroke:#181818;stroke-width:1.0;" width="10" x="498.665" y="431.0137"/><rect fill="#FFFFFF" height="361.6816" style="stroke:#181818;stroke-width:1.0;" width="10" x="738.5977" y="460.3242"/><rect fill="#FFFFFF" height="87.9316" style="stroke:#181818;stroke-width:1.0;" width="10" x="1096.5205" y="689.7637"/><rect fill="#FFFFFF" height="29.3105" style="stroke:#181818;stroke-width:1.0;" width="10" x="1324.9067" y="719.0742"/><rect fill="none" height="282.0605" style="stroke:#000000;stroke-width:1.5;" width="1405.0371" x="10" y="532.9453"/><line style="stroke:#181818;stroke-width:0.5;stroke-dasharray:5.0,5.0;" x1="83" x2="83" y1="118.9766" y2="948.248"/><line style="stroke:#181818;stroke-width:0.5;stroke-dasharray:5.0,5.0;" x1="270.6089" x2="270.6089" y1="118.9766" y2="948.248"/><line style="stroke:#181818;stroke-width:0.5;stroke-dasharray:5.0,5.0;" x1="503.3276" x2="503.3276" y1="118.9766" y2="948.248"/><line style="stroke:#181818;stroke-width:0.5;stroke-dasharray:5.0,5.0;" x1="742.6748" x2="742.6748" y1="118.9766" y2="948.248"/><line style="stroke:#181818;stroke-width:0.5;stroke-dasharray:5.0,5.0;" x1="1101.1284" x2="1101.1284" y1="118.9766" y2="948.248"/><line style="stroke:#181818;stroke-width:0.5;stroke-dasharray:5.0,5.0;" x1="1329.7764" x2="1329.7764" y1="118.9766" y2="948.248"/><text fill="#000000" font-family="sans-serif" font-size="14" lengthAdjust="spacing" textLength="120.9482" x="20" y="116.0234">Usuario (Docente)</text><ellipse cx="83.4741" cy="50.9883" fill="#E2E2F0" rx="8" ry="8" style="stroke:#181818;stroke-width:0.5;"/><path d="M83.4741,58.9883 L83.4741,85.9883 M70.4741,66.9883 L96.4741,66.9883 M83.4741,85.9883 L70.4741,100.9883 M83.4741,85.9883 L96.4741,100.9883 " fill="none" style="stroke:#181818;stroke-width:0.5;"/><text fill="#000000" font-family="sans-serif" font-size="14" lengthAdjust="spacing" textLength="120.9482" x="20" y="960.7832">Usuario (Docente)</text><ellipse cx="83.4741" cy="972.2363" fill="#E2E2F0" rx="8" ry="8" style="stroke:#181818;stroke-width:0.5;"/><path d="M83.4741,980.2363 L83.4741,1007.2363 M70.4741,988.2363 L96.4741,988.2363 M83.4741,1007.2363 L70.4741,1022.2363 M83.4741,1007.2363 L96.4741,1022.2363 " fill="none" style="stroke:#181818;stroke-width:0.5;"/><rect fill="#E2E2F0" height="30.4883" rx="2.5" ry="2.5" style="stroke:#181818;stroke-width:0.5;" width="126.3008" x="207.6089" y="87.4883"/><text fill="#000000" font-family="sans-serif" font-size="14" lengthAdjust="spacing" textLength="112.3008" x="214.6089" y="108.0234">AsignaturasView</text><rect fill="#E2E2F0" height="30.4883" rx="2.5" ry="2.5" style="stroke:#181818;stroke-width:0.5;" width="126.3008" x="207.6089" y="947.248"/><text fill="#000000" font-family="sans-serif" font-size="14" lengthAdjust="spacing" textLength="112.3008" x="214.6089" y="967.7832">AsignaturasView</text><rect fill="#E2E2F0" height="30.4883" rx="2.5" ry="2.5" style="stroke:#181818;stroke-width:0.5;" width="162.6748" x="422.3276" y="87.4883"/><text fill="#000000" font-family="sans-serif" font-size="14" lengthAdjust="spacing" textLength="148.6748" x="429.3276" y="108.0234">AsignaturasController</text><rect fill="#E2E2F0" height="30.4883" rx="2.5" ry="2.5" style="stroke:#181818;stroke-width:0.5;" width="162.6748" x="422.3276" y="947.248"/><text fill="#000000" font-family="sans-serif" font-size="14" lengthAdjust="spacing" textLength="148.6748" x="429.3276" y="967.7832">AsignaturasController</text><rect fill="#E2E2F0" height="30.4883" rx="2.5" ry="2.5" style="stroke:#181818;stroke-width:0.5;" width="141.8457" x="672.6748" y="87.4883"/><text fill="#000000" font-family="sans-serif" font-size="14" lengthAdjust="spacing" textLength="127.8457" x="679.6748" y="108.0234">AsignaturasService</text><rect fill="#E2E2F0" height="30.4883" rx="2.5" ry="2.5" style="stroke:#181818;stroke-width:0.5;" width="141.8457" x="672.6748" y="947.248"/><text fill="#000000" font-family="sans-serif" font-size="14" lengthAdjust="spacing" textLength="127.8457" x="679.6748" y="967.7832">AsignaturasService</text><rect fill="#E2E2F0" height="30.4883" rx="2.5" ry="2.5" style="stroke:#181818;stroke-width:0.5;" width="106.7842" x="1048.1284" y="87.4883"/><text fill="#000000" font-family="sans-serif" font-size="14" lengthAdjust="spacing" textLength="92.7842" x="1055.1284" y="108.0234">PrismaService</text><rect fill="#E2E2F0" height="30.4883" rx="2.5" ry="2.5" style="stroke:#181818;stroke-width:0.5;" width="106.7842" x="1048.1284" y="947.248"/><text fill="#000000" font-family="sans-serif" font-size="14" lengthAdjust="spacing" textLength="92.7842" x="1055.1284" y="967.7832">PrismaService</text><rect fill="#E2E2F0" height="46.9766" rx="2.5" ry="2.5" style="stroke:#181818;stroke-width:0.5;" width="150.2607" x="1254.7764" y="71"/><text fill="#000000" font-family="sans-serif" font-size="14" lengthAdjust="spacing" textLength="95.3818" x="1282.2158" y="91.5352">Base de Datos</text><text fill="#000000" font-family="sans-serif" font-size="14" lengthAdjust="spacing" textLength="136.2607" x="1261.7764" y="108.0234">(SQLite/PostgreSQL)</text><rect fill="#E2E2F0" height="46.9766" rx="2.5" ry="2.5" style="stroke:#181818;stroke-width:0.5;" width="150.2607" x="1254.7764" y="947.248"/><text fill="#000000" font-family="sans-serif" font-size="14" lengthAdjust="spacing" textLength="95.3818" x="1282.2158" y="967.7832">Base de Datos</text><text fill="#000000" font-family="sans-serif" font-size="14" lengthAdjust="spacing" textLength="136.2607" x="1261.7764" y="984.2715">(SQLite/PostgreSQL)</text><rect fill="#FFFFFF" height="757.6504" style="stroke:#181818;stroke-width:1.0;" width="10" x="265.7593" y="165.5977"/><rect fill="#FFFFFF" height="427.6133" style="stroke:#181818;stroke-width:1.0;" width="10" x="498.665" y="431.0137"/><rect fill="#FFFFFF" height="361.6816" style="stroke:#181818;stroke-width:1.0;" width="10" x="738.5977" y="460.3242"/><rect fill="#FFFFFF" height="87.9316" style="stroke:#181818;stroke-width:1.0;" width="10" x="1096.5205" y="689.7637"/><rect fill="#FFFFFF" height="29.3105" style="stroke:#181818;stroke-width:1.0;" width="10" x="1324.9067" y="719.0742"/><polygon fill="#181818" points="253.7593,161.5977,263.7593,165.5977,253.7593,169.5977,257.7593,165.5977" style="stroke:#181818;stroke-width:1.0;"/><line style="stroke:#181818;stroke-width:1.0;" x1="83.4741" x2="259.7593" y1="165.5977" y2="165.5977"/><text fill="#000000" font-family="sans-serif" font-size="13" lengthAdjust="spacing" textLength="121.0308" x="90.4741" y="145.5449">Navega a "Importar</text><text fill="#000000" font-family="sans-serif" font-size="13" lengthAdjust="spacing" textLength="79.6187" x="90.4741" y="160.8555">Asignaturas"</text><polygon fill="#181818" points="94.4741,206.2188,84.4741,210.2188,94.4741,214.2188,90.4741,210.2188" style="stroke:#181818;stroke-width:1.0;"/><line style="stroke:#181818;stroke-width:1.0;stroke-dasharray:2.0,2.0;" x1="88.4741" x2="264.7593" y1="210.2188" y2="210.2188"/><text fill="#000000" font-family="sans-serif" font-size="13" lengthAdjust="spacing" textLength="120.8975" x="100.4741" y="190.166">Muestra formulario</text><text fill="#000000" font-family="sans-serif" font-size="13" lengthAdjust="spacing" textLength="132.3994" x="100.4741" y="205.4766">carga de archivo CSV</text><polygon fill="#181818" points="253.7593,250.8398,263.7593,254.8398,253.7593,258.8398,257.7593,254.8398" style="stroke:#181818;stroke-width:1.0;"/><line style="stroke:#181818;stroke-width:1.0;" x1="83.4741" x2="259.7593" y1="254.8398" y2="254.8398"/><text fill="#000000" font-family="sans-serif" font-size="13" lengthAdjust="spacing" textLength="115.3623" x="90.4741" y="234.7871">Selecciona archivo</text><text fill="#000000" font-family="sans-serif" font-size="13" lengthAdjust="spacing" textLength="158.2852" x="90.4741" y="250.0977">con datos de asignaturas</text><line style="stroke:#181818;stroke-width:1.0;" x1="275.7593" x2="317.7593" y1="299.4609" y2="299.4609"/><line style="stroke:#181818;stroke-width:1.0;" x1="317.7593" x2="317.7593" y1="299.4609" y2="312.4609"/><line style="stroke:#181818;stroke-width:1.0;" x1="276.7593" x2="317.7593" y1="312.4609" y2="312.4609"/><polygon fill="#181818" points="286.7593,308.4609,276.7593,312.4609,286.7593,316.4609,282.7593,312.4609" style="stroke:#181818;stroke-width:1.0;"/><text fill="#000000" font-family="sans-serif" font-size="13" lengthAdjust="spacing" textLength="111.687" x="282.7593" y="279.4082">Lee y previsualiza</text><text fill="#000000" font-family="sans-serif" font-size="13" lengthAdjust="spacing" textLength="128.3179" x="282.7593" y="294.7188">n&#250;mero de registros</text><polygon fill="#181818" points="94.4741,353.082,84.4741,357.082,94.4741,361.082,90.4741,357.082" style="stroke:#181818;stroke-width:1.0;"/><line style="stroke:#181818;stroke-width:1.0;stroke-dasharray:2.0,2.0;" x1="88.4741" x2="264.7593" y1="357.082" y2="357.082"/><text fill="#000000" font-family="sans-serif" font-size="13" lengthAdjust="spacing" textLength="109.313" x="100.4741" y="337.0293">Muestra resumen</text><text fill="#000000" font-family="sans-serif" font-size="13" lengthAdjust="spacing" textLength="141.959" x="100.4741" y="352.3398">y solicita confirmaci&#243;n</text><polygon fill="#181818" points="253.7593,382.3926,263.7593,386.3926,253.7593,390.3926,257.7593,386.3926" style="stroke:#181818;stroke-width:1.0;"/><line style="stroke:#181818;stroke-width:1.0;" x1="83.4741" x2="259.7593" y1="386.3926" y2="386.3926"/><text fill="#000000" font-family="sans-serif" font-size="13" lengthAdjust="spacing" textLength="138.2266" x="90.4741" y="381.6504">Confirma importaci&#243;n</text><polygon fill="#181818" points="486.665,427.0137,496.665,431.0137,486.665,435.0137,490.665,431.0137" style="stroke:#181818;stroke-width:1.0;"/><line style="stroke:#181818;stroke-width:1.0;" x1="275.7593" x2="492.665" y1="431.0137" y2="431.0137"/><text fill="#000000" font-family="sans-serif" font-size="13" lengthAdjust="spacing" textLength="203.9058" x="282.7593" y="410.9609">POST /api/asignaturas/importar</text><text fill="#000000" font-family="sans-serif" font-size="13" lengthAdjust="spacing" textLength="158.0439" x="282.7593" y="426.2715">body: { asignaturas: [...] }</text><polygon fill="#181818" points="726.5977,456.3242,736.5977,460.3242,726.5977,464.3242,730.5977,460.3242" style="stroke:#181818;stroke-width:1.0;"/><line style="stroke:#181818;stroke-width:1.0;" x1="508.665" x2="732.5977" y1="460.3242" y2="460.3242"/><text fill="#000000" font-family="sans-serif" font-size="13" lengthAdjust="spacing" textLength="210.9326" x="515.665" y="455.582">importarAsignaturas(asignaturas)</text><line style="stroke:#181818;stroke-width:1.0;" x1="748.5977" x2="790.5977" y1="504.9453" y2="504.9453"/><line style="stroke:#181818;stroke-width:1.0;" x1="790.5977" x2="790.5977" y1="504.9453" y2="517.9453"/><line style="stroke:#181818;stroke-width:1.0;" x1="749.5977" x2="790.5977" y1="517.9453" y2="517.9453"/><polygon fill="#181818" points="759.5977,513.9453,749.5977,517.9453,759.5977,521.9453,755.5977,517.9453" style="stroke:#181818;stroke-width:1.0;"/><text fill="#000000" font-family="sans-serif" font-size="13" lengthAdjust="spacing" textLength="91.5205" x="755.5977" y="484.8926">Valida sintaxis</text><text fill="#000000" font-family="sans-serif" font-size="13" lengthAdjust="spacing" textLength="102.0703" x="755.5977" y="500.2031">de cada registro</text><path d="M10,532.9453 L72.1387,532.9453 L72.1387,540.2559 L62.1387,550.2559 L10,550.2559 L10,532.9453 " fill="#EEEEEE" style="stroke:#000000;stroke-width:1.5;"/><rect fill="none" height="282.0605" style="stroke:#000000;stroke-width:1.5;" width="1405.0371" x="10" y="532.9453"/><text fill="#000000" font-family="sans-serif" font-size="13" font-weight="bold" lengthAdjust="spacing" textLength="17.1387" x="25" y="546.5137">alt</text><text fill="#000000" font-family="sans-serif" font-size="11" font-weight="bold" lengthAdjust="spacing" textLength="96.1533" x="87.1387" y="545.5801">[Datos inv&#225;lidos]</text><polygon fill="#181818" points="519.665,567.5664,509.665,571.5664,519.665,575.5664,515.665,571.5664" style="stroke:#181818;stroke-width:1.0;"/><line style="stroke:#181818;stroke-width:1.0;stroke-dasharray:2.0,2.0;" x1="513.665" x2="737.5977" y1="571.5664" y2="571.5664"/><text fill="#000000" font-family="sans-serif" font-size="13" lengthAdjust="spacing" textLength="172.8086" x="525.665" y="566.8242">lanza BadRequestException</text><polygon fill="#181818" points="286.7593,596.877,276.7593,600.877,286.7593,604.877,282.7593,600.877" style="stroke:#181818;stroke-width:1.0;"/><line style="stroke:#181818;stroke-width:1.0;stroke-dasharray:2.0,2.0;" x1="280.7593" x2="497.665" y1="600.877" y2="600.877"/><text fill="#000000" font-family="sans-serif" font-size="13" lengthAdjust="spacing" textLength="106.1709" x="292.7593" y="596.1348">400 Bad Request</text><polygon fill="#181818" points="94.4741,641.498,84.4741,645.498,94.4741,649.498,90.4741,645.498" style="stroke:#181818;stroke-width:1.0;"/><line style="stroke:#181818;stroke-width:1.0;stroke-dasharray:2.0,2.0;" x1="88.4741" x2="264.7593" y1="645.498" y2="645.498"/><text fill="#000000" font-family="sans-serif" font-size="13" lengthAdjust="spacing" textLength="99.6646" x="100.4741" y="625.4453">Muestra errores</text><text fill="#000000" font-family="sans-serif" font-size="13" lengthAdjust="spacing" textLength="82.7925" x="100.4741" y="640.7559">de validaci&#243;n</text><line style="stroke:#000000;stroke-width:1.0;stroke-dasharray:2.0,2.0;" x1="10" x2="1415.0371" y1="654.498" y2="654.498"/><text fill="#000000" font-family="sans-serif" font-size="11" font-weight="bold" lengthAdjust="spacing" textLength="85.3521" x="15" y="665.1328">[Datos v&#225;lidos]</text><polygon fill="#181818" points="1084.5205,685.7637,1094.5205,689.7637,1084.5205,693.7637,1088.5205,689.7637" style="stroke:#181818;stroke-width:1.0;"/><line style="stroke:#181818;stroke-width:1.0;" x1="748.5977" x2="1090.5205" y1="689.7637" y2="689.7637"/><text fill="#000000" font-family="sans-serif" font-size="13" lengthAdjust="spacing" textLength="328.9229" x="755.5977" y="685.0215">asignatura.createMany({ data, skipDuplicates: true })</text><polygon fill="#181818" points="1312.9067,715.0742,1322.9067,719.0742,1312.9067,723.0742,1316.9067,719.0742" style="stroke:#181818;stroke-width:1.0;"/><line style="stroke:#181818;stroke-width:1.0;" x1="1106.5205" x2="1318.9067" y1="719.0742" y2="719.0742"/><text fill="#000000" font-family="sans-serif" font-size="13" lengthAdjust="spacing" textLength="199.3862" x="1113.5205" y="714.332">INSERT INTO Asignatura (batch)</text><polygon fill="#181818" points="1117.5205,744.3848,1107.5205,748.3848,1117.5205,752.3848,1113.5205,748.3848" style="stroke:#181818;stroke-width:1.0;"/><line style="stroke:#181818;stroke-width:1.0;stroke-dasharray:2.0,2.0;" x1="1111.5205" x2="1328.9067" y1="748.3848" y2="748.3848"/><text fill="#000000" font-family="sans-serif" font-size="13" lengthAdjust="spacing" textLength="125.4741" x="1123.5205" y="743.6426">asignaturas creadas</text><polygon fill="#181818" points="759.5977,773.6953,749.5977,777.6953,759.5977,781.6953,755.5977,777.6953" style="stroke:#181818;stroke-width:1.0;"/><line style="stroke:#181818;stroke-width:1.0;stroke-dasharray:2.0,2.0;" x1="753.5977" x2="1100.5205" y1="777.6953" y2="777.6953"/><text fill="#000000" font-family="sans-serif" font-size="13" lengthAdjust="spacing" textLength="59.2236" x="765.5977" y="772.9531">resultado</text><polygon fill="#181818" points="519.665,803.0059,509.665,807.0059,519.665,811.0059,515.665,807.0059" style="stroke:#181818;stroke-width:1.0;"/><line style="stroke:#181818;stroke-width:1.0;stroke-dasharray:2.0,2.0;" x1="513.665" x2="737.5977" y1="807.0059" y2="807.0059"/><text fill="#000000" font-family="sans-serif" font-size="13" lengthAdjust="spacing" textLength="205.7021" x="525.665" y="802.2637">{ importados, omitidos, errores }</text><polygon fill="#181818" points="286.7593,854.627,276.7593,858.627,286.7593,862.627,282.7593,858.627" style="stroke:#181818;stroke-width:1.0;"/><line style="stroke:#181818;stroke-width:1.0;stroke-dasharray:2.0,2.0;" x1="280.7593" x2="502.665" y1="858.627" y2="858.627"/><text fill="#000000" font-family="sans-serif" font-size="13" lengthAdjust="spacing" textLength="77.7969" x="292.7593" y="838.5742">201 Created</text><text fill="#000000" font-family="sans-serif" font-size="13" lengthAdjust="spacing" textLength="151.3916" x="292.7593" y="853.8848">{ resumen importaci&#243;n }</text><polygon fill="#181818" points="94.4741,883.9375,84.4741,887.9375,94.4741,891.9375,90.4741,887.9375" style="stroke:#181818;stroke-width:1.0;"/><line style="stroke:#181818;stroke-width:1.0;stroke-dasharray:2.0,2.0;" x1="88.4741" x2="264.7593" y1="887.9375" y2="887.9375"/><text fill="#000000" font-family="sans-serif" font-size="13" lengthAdjust="spacing" textLength="113.8325" x="100.4741" y="883.1953">Muestra resultado</text><line style="stroke:#181818;stroke-width:1.0;" x1="275.7593" x2="317.7593" y1="922.248" y2="922.248"/><line style="stroke:#181818;stroke-width:1.0;" x1="317.7593" x2="317.7593" y1="922.248" y2="935.248"/><line style="stroke:#181818;stroke-width:1.0;" x1="270.7593" x2="317.7593" y1="935.248" y2="935.248"/><polygon fill="#181818" points="280.7593,931.248,270.7593,935.248,280.7593,939.248,276.7593,935.248" style="stroke:#181818;stroke-width:1.0;"/><text fill="#000000" font-family="sans-serif" font-size="13" lengthAdjust="spacing" textLength="96.3701" x="282.7593" y="917.5059">Recarga listado</text><!--SRC=[VLJ9Sjim3BthAp0-sTF4JfUJ3fcfbyoaawrHualT0q8X3gSIgPAK6yUJZ-atzDPhVgoW5fjgdLviIde07ju3wAJB2AOIbmPpX9GW8L6I4XBX44xpGXk71ZvQkLJeIeCM-XTatQS4ti2y97W_Y28KJXletTeIZTJGdsf1oj6W1mo_jMIY0esJGXQe7FI2P7D9FohKoUnLp4GhPtIMaQcGkyTN8n8oAoceWZVdBlRAI9jZ2AlVT55ZjEGLcQBJTg7woUSpwMXqfQrR6kAdki7fE8fyat1up6t4S84hMY8Wz5hv5YeWr_DooHKwyasVpE2Gutny3ESbAsiGxhN9oynhkL02pRBo1Orua2iDasJUhPTGHa98hR35S9HMa7hQLUIkU5Ml3ZiZWZKKXbQIVSla4owKUlcTaz4-oD1ICXbjzrCqPCkSr4AjmUgC9NC8NFHUcXo5VFcbkXmdpIUGjIGrf2QpCpI6gyla1aPOo550UYItEjxfT1t39cmfXY_3uV0hFEzq3KPaT_Ib6iVZbeO9VEa7EGUxNEtyHCsXasREkgK8LYg7Zv9dX8KJcE9MFTwDpDK315AjNduodYK5s6RxIu0CrHF26DDh-kwbdZqAAXoRop5XBusk7uwEF1WQD8FskaN6Q7QiuhUgEDS6K6QRyOPzt8wRjOW3lOV24EjoZchTt_WPmmEmtsGnBGiU0_x2XZZ35yFpW5DjPMps2vg3ppqTnt1waSokR_ZlvZAuOw1_XquyT1BmbW7_LCtzoyg2fvMYfvzIDwYj61hdnpTpcEeklc7v7tysxUYmL0UWS-baTMeKvYaabKPHaBCTe3tklJjw2vDApdIXDkrETNQ44mQvWi5-TIlhjdPxVatr5PBnGFelGJg-V_u0]--></g></svg>