<?plantuml 1.2026.1?><svg xmlns="http://www.w3.org/2000/svg" xmlns:xlink="http://www.w3.org/1999/xlink" contentStyleType="text/css" data-diagram-type="SEQUENCE" height="647px" preserveAspectRatio="none" style="width:463px;height:647px;background:#FEFEFE;" version="1.1" viewBox="0 0 463 647" width="463px" zoomAndPan="magnify"><defs/><g><rect fill="#FEFEFE" height="647" style="stroke:none;stroke-width:1;" width="463" x="0" y="0"/><g><title>GradosController</title><rect fill="#FFFFFF" height="162.8281" style="stroke:#181818;stroke-width:1;" width="10" x="201.9392" y="147.4141"/></g><g><title>GradosService</title><rect fill="#FFFFFF" height="80.4141" style="stroke:#181818;stroke-width:1;" width="10" x="304.6716" y="196.0234"/></g><g><title>Grado</title><rect fill="#FFFFFF" height="26.8047" style="stroke:#181818;stroke-width:1;" width="10" x="411.9172" y="222.8281"/></g><rect fill="none" height="122.0234" style="stroke:#000000;stroke-width:1.5;" width="299.5181" x="147.1489" y="162.4141"/><g class="participant-lifeline" data-entity-uid="part1" data-qualified-name="Docente" id="part1-lifeline"><g><title>Docente</title><rect fill="#000000" fill-opacity="0.00000" height="492.875" width="8" x="27.0339" y="77.8047"/><line style="stroke:#181818;stroke-width:0.5;stroke-dasharray:5,5;" x1="31" x2="31" y1="77.8047" y2="570.6797"/></g></g><g class="participant-lifeline" data-entity-uid="part2" data-qualified-name="GradosController" id="part2-lifeline"><g><title>GradosController</title><rect fill="#000000" fill-opacity="0.00000" height="492.875" width="8" x="202.9392" y="77.8047"/><line style="stroke:#181818;stroke-width:0.5;stroke-dasharray:5,5;" x1="206.1489" x2="206.1489" y1="77.8047" y2="570.6797"/></g></g><g class="participant-lifeline" data-entity-uid="part3" data-qualified-name="GradosService" id="part3-lifeline"><g><title>GradosService</title><rect fill="#000000" fill-opacity="0.00000" height="492.875" width="8" x="305.6716" y="77.8047"/><line style="stroke:#181818;stroke-width:0.5;stroke-dasharray:5,5;" x1="308.7295" x2="308.7295" y1="77.8047" y2="570.6797"/></g></g><g class="participant-lifeline" data-entity-uid="part4" data-qualified-name="Grado" id="part4-lifeline"><g><title>Grado</title><rect fill="#000000" fill-opacity="0.00000" height="492.875" width="8" x="412.9172" y="77.8047"/><line style="stroke:#181818;stroke-width:0.5;stroke-dasharray:5,5;" x1="416.1675" x2="416.1675" y1="77.8047" y2="570.6797"/></g></g><g class="participant participant-head" data-entity-uid="part1" data-qualified-name="Docente" id="part1-head"><text fill="#000000" font-family="Arial" font-size="11" lengthAdjust="spacing" textLength="46.0679" x="5" y="75.2104">Docente</text><ellipse cx="31.0339" cy="13.5" fill="#E2E2F0" rx="8" ry="8" style="stroke:#181818;stroke-width:0.5;"/><path d="M31.0339,21.5 L31.0339,48.5 M18.0339,29.5 L44.0339,29.5 M31.0339,48.5 L18.0339,63.5 M31.0339,48.5 L44.0339,63.5" fill="none" style="stroke:#181818;stroke-width:0.5;"/></g><g class="participant participant-tail" data-entity-uid="part1" data-qualified-name="Docente" id="part1-tail"><text fill="#000000" font-family="Arial" font-size="11" lengthAdjust="spacing" textLength="46.0679" x="5" y="579.8901">Docente</text><ellipse cx="31.0339" cy="590.9844" fill="#E2E2F0" rx="8" ry="8" style="stroke:#181818;stroke-width:0.5;"/><path d="M31.0339,598.9844 L31.0339,625.9844 M18.0339,606.9844 L44.0339,606.9844 M31.0339,625.9844 L18.0339,640.9844 M31.0339,625.9844 L44.0339,640.9844" fill="none" style="stroke:#181818;stroke-width:0.5;"/></g><g class="participant participant-head" data-entity-uid="part2" data-qualified-name="GradosController" id="part2-head"><text fill="#000000" font-family="Arial" font-size="11" lengthAdjust="spacing" textLength="93.5806" x="157.1489" y="75.2104">GradosController</text><ellipse cx="206.9392" cy="49" fill="#E2E2F0" rx="12" ry="12" style="stroke:#181818;stroke-width:0.5;"/><polygon fill="#181818" points="202.9392,37,208.9392,32,206.9392,37,208.9392,42,202.9392,37" style="stroke:#181818;stroke-width:1;"/></g><g class="participant participant-tail" data-entity-uid="part2" data-qualified-name="GradosController" id="part2-tail"><text fill="#000000" font-family="Arial" font-size="11" lengthAdjust="spacing" textLength="93.5806" x="157.1489" y="579.8901">GradosController</text><ellipse cx="206.9392" cy="598.4844" fill="#E2E2F0" rx="12" ry="12" style="stroke:#181818;stroke-width:0.5;"/><polygon fill="#181818" points="202.9392,586.4844,208.9392,581.4844,206.9392,586.4844,208.9392,591.4844,202.9392,586.4844" style="stroke:#181818;stroke-width:1;"/></g><g class="participant participant-head" data-entity-uid="part3" data-qualified-name="GradosService" id="part3-head"><text fill="#000000" font-family="Arial" font-size="11" lengthAdjust="spacing" textLength="79.8843" x="266.7295" y="75.2104">GradosService</text><ellipse cx="309.6716" cy="49" fill="#E2E2F0" rx="12" ry="12" style="stroke:#181818;stroke-width:0.5;"/><line style="stroke:#181818;stroke-width:0.5;" x1="297.6716" x2="321.6716" y1="63" y2="63"/></g><g class="participant participant-tail" data-entity-uid="part3" data-qualified-name="GradosService" id="part3-tail"><text fill="#000000" font-family="Arial" font-size="11" lengthAdjust="spacing" textLength="79.8843" x="266.7295" y="579.8901">GradosService</text><ellipse cx="309.6716" cy="598.4844" fill="#E2E2F0" rx="12" ry="12" style="stroke:#181818;stroke-width:0.5;"/><line style="stroke:#181818;stroke-width:0.5;" x1="297.6716" x2="321.6716" y1="612.4844" y2="612.4844"/></g><g class="participant participant-head" data-entity-uid="part4" data-qualified-name="Grado" id="part4-head"><text fill="#000000" font-family="Arial" font-size="11" lengthAdjust="spacing" textLength="33.4995" x="397.1675" y="75.2104">Grado</text><ellipse cx="416.9172" cy="49" fill="#E2E2F0" rx="12" ry="12" style="stroke:#181818;stroke-width:0.5;"/><line style="stroke:#181818;stroke-width:0.5;" x1="404.9172" x2="428.9172" y1="63" y2="63"/></g><g class="participant participant-tail" data-entity-uid="part4" data-qualified-name="Grado" id="part4-tail"><text fill="#000000" font-family="Arial" font-size="11" lengthAdjust="spacing" textLength="33.4995" x="397.1675" y="579.8901">Grado</text><ellipse cx="416.9172" cy="598.4844" fill="#E2E2F0" rx="12" ry="12" style="stroke:#181818;stroke-width:0.5;"/><line style="stroke:#181818;stroke-width:0.5;" x1="404.9172" x2="428.9172" y1="612.4844" y2="612.4844"/></g><g><title>GradosController</title><rect fill="#FFFFFF" height="162.8281" style="stroke:#181818;stroke-width:1;" width="10" x="201.9392" y="147.4141"/></g><g><title>GradosService</title><rect fill="#FFFFFF" height="80.4141" style="stroke:#181818;stroke-width:1;" width="10" x="304.6716" y="196.0234"/></g><g><title>Grado</title><rect fill="#FFFFFF" height="26.8047" style="stroke:#181818;stroke-width:1;" width="10" x="411.9172" y="222.8281"/></g><rect fill="#EEEEEE" height="3" style="stroke:#EEEEEE;stroke-width:1;" width="456.667" x="0" y="107.207"/><line style="stroke:#000000;stroke-width:1;" x1="0" x2="456.667" y1="107.207" y2="107.207"/><line style="stroke:#000000;stroke-width:1;" x1="0" x2="456.667" y1="110.207" y2="110.207"/><rect fill="#EEEEEE" height="20.8047" style="stroke:#000000;stroke-width:2;" width="242.54" x="107.0635" y="97.8047"/><text fill="#000000" font-family="Arial" font-size="11" font-weight="bold" lengthAdjust="spacing" textLength="224.7104" x="113.0635" y="112.0151">Flujo Principal - Importaci&#243;n Exitosa</text><g class="message" data-entity-1="part1" data-entity-2="part2" id="msg1"><polygon fill="#181818" points="189.9392,143.4141,199.9392,147.4141,189.9392,151.4141,193.9392,147.4141" style="stroke:#181818;stroke-width:1;"/><line style="stroke:#181818;stroke-width:1;" x1="31.0339" x2="195.9392" y1="147.4141" y2="147.4141"/><text fill="#000000" font-family="Arial" font-size="11" lengthAdjust="spacing" textLength="84.2456" x="38.0339" y="142.8198">importa grados</text></g><path d="M147.1489,162.4141 L218.9077,162.4141 L218.9077,167.2188 L208.9077,177.2188 L147.1489,177.2188 L147.1489,162.4141" fill="#EEEEEE" style="stroke:#000000;stroke-width:1.5;"/><rect fill="none" height="122.0234" style="stroke:#000000;stroke-width:1.5;" width="299.5181" x="147.1489" y="162.4141"/><text fill="#000000" font-family="Arial" font-size="11" font-weight="bold" lengthAdjust="spacing" textLength="26.7588" x="162.1489" y="173.6245">loop</text><text fill="#000000" font-family="Arial" font-size="11" font-weight="bold" lengthAdjust="spacing" textLength="103.9629" x="233.9077" y="174.6245">[por cada grado]</text><g class="message" data-entity-1="part2" data-entity-2="part3" id="msg2"><polygon fill="#181818" points="292.6716,192.0234,302.6716,196.0234,292.6716,200.0234,296.6716,196.0234" style="stroke:#181818;stroke-width:1;"/><line style="stroke:#181818;stroke-width:1;" x1="211.9392" x2="298.6716" y1="196.0234" y2="196.0234"/><text fill="#000000" font-family="Arial" font-size="11" lengthAdjust="spacing" textLength="61.7676" x="218.9392" y="191.4292">create(dto)</text></g><g class="message" data-entity-1="part3" data-entity-2="part4" id="msg3"><polygon fill="#181818" points="399.9172,218.8281,409.9172,222.8281,399.9172,226.8281,403.9172,222.8281" style="stroke:#181818;stroke-width:1;"/><line style="stroke:#181818;stroke-width:1;" x1="314.6716" x2="405.9172" y1="222.8281" y2="222.8281"/><text fill="#000000" font-family="Arial" font-size="11" lengthAdjust="spacing" textLength="59.5332" x="321.6716" y="218.2339">crea grado</text></g><g class="message" data-entity-1="part4" data-entity-2="part3" id="msg4"><polygon fill="#181818" points="325.6716,245.6328,315.6716,249.6328,325.6716,253.6328,321.6716,249.6328" style="stroke:#181818;stroke-width:1;"/><line style="stroke:#181818;stroke-width:1;stroke-dasharray:2,2;" x1="319.6716" x2="415.9172" y1="249.6328" y2="249.6328"/><text fill="#000000" font-family="Arial" font-size="11" lengthAdjust="spacing" textLength="73.2456" x="331.6716" y="245.0386">grado creado</text></g><g class="message" data-entity-1="part3" data-entity-2="part2" id="msg5"><polygon fill="#181818" points="222.9392,272.4375,212.9392,276.4375,222.9392,280.4375,218.9392,276.4375" style="stroke:#181818;stroke-width:1;"/><line style="stroke:#181818;stroke-width:1;stroke-dasharray:2,2;" x1="216.9392" x2="308.6716" y1="276.4375" y2="276.4375"/><text fill="#000000" font-family="Arial" font-size="11" lengthAdjust="spacing" textLength="13.1001" x="228.9392" y="271.8433">ok</text></g><g class="message" data-entity-1="part2" data-entity-2="part1" id="msg6"><polygon fill="#181818" points="42.0339,306.2422,32.0339,310.2422,42.0339,314.2422,38.0339,310.2422" style="stroke:#181818;stroke-width:1;"/><line style="stroke:#181818;stroke-width:1;stroke-dasharray:2,2;" x1="36.0339" x2="205.9392" y1="310.2422" y2="310.2422"/><text fill="#000000" font-family="Arial" font-size="11" lengthAdjust="spacing" textLength="109.2104" x="48.0339" y="305.6479">importaci&#243;n exitosa</text></g><rect fill="#EEEEEE" height="3" style="stroke:#EEEEEE;stroke-width:1;" width="456.667" x="0" y="337.6445"/><line style="stroke:#000000;stroke-width:1;" x1="0" x2="456.667" y1="337.6445" y2="337.6445"/><line style="stroke:#000000;stroke-width:1;" x1="0" x2="456.667" y1="340.6445" y2="340.6445"/><rect fill="#EEEEEE" height="20.8047" style="stroke:#000000;stroke-width:2;" width="165.1104" x="145.7783" y="328.2422"/><text fill="#000000" font-family="Arial" font-size="11" font-weight="bold" lengthAdjust="spacing" textLength="147.2808" x="151.7783" y="342.4526">Flujo Alternativo - Error</text><g class="message" data-entity-1="part1" data-entity-2="part2" id="msg7"><polygon fill="#181818" points="194.9392,373.8516,204.9392,377.8516,194.9392,381.8516,198.9392,377.8516" style="stroke:#181818;stroke-width:1;"/><line style="stroke:#181818;stroke-width:1;" x1="31.0339" x2="200.9392" y1="377.8516" y2="377.8516"/><text fill="#000000" font-family="Arial" font-size="11" lengthAdjust="spacing" textLength="84.2456" x="38.0339" y="373.2573">importa grados</text></g><g class="message" data-entity-1="part2" data-entity-2="part3" id="msg8"><polygon fill="#181818" points="297.6716,400.6563,307.6716,404.6563,297.6716,408.6563,301.6716,404.6563" style="stroke:#181818;stroke-width:1;"/><line style="stroke:#181818;stroke-width:1;" x1="206.9392" x2="303.6716" y1="404.6563" y2="404.6563"/><text fill="#000000" font-family="Arial" font-size="11" lengthAdjust="spacing" textLength="61.7676" x="213.9392" y="400.062">create(dto)</text></g><g class="message" data-entity-1="part3" data-entity-2="part2" id="msg9"><polygon fill="#181818" points="217.9392,427.4609,207.9392,431.4609,217.9392,435.4609,213.9392,431.4609" style="stroke:#181818;stroke-width:1;"/><line style="stroke:#181818;stroke-width:1;stroke-dasharray:2,2;" x1="211.9392" x2="308.6716" y1="431.4609" y2="431.4609"/><text fill="#000000" font-family="Arial" font-size="11" lengthAdjust="spacing" textLength="27.0649" x="223.9392" y="426.8667">error</text></g><g class="message" data-entity-1="part2" data-entity-2="part1" id="msg10"><polygon fill="#181818" points="42.0339,454.2656,32.0339,458.2656,42.0339,462.2656,38.0339,458.2656" style="stroke:#181818;stroke-width:1;"/><line style="stroke:#181818;stroke-width:1;stroke-dasharray:2,2;" x1="36.0339" x2="205.9392" y1="458.2656" y2="458.2656"/><text fill="#000000" font-family="Arial" font-size="11" lengthAdjust="spacing" textLength="89.0044" x="48.0339" y="453.6714">error, reintentar</text></g><rect fill="#EEEEEE" height="3" style="stroke:#EEEEEE;stroke-width:1;" width="456.667" x="0" y="485.668"/><line style="stroke:#000000;stroke-width:1;" x1="0" x2="456.667" y1="485.668" y2="485.668"/><line style="stroke:#000000;stroke-width:1;" x1="0" x2="456.667" y1="488.668" y2="488.668"/><rect fill="#EEEEEE" height="20.8047" style="stroke:#000000;stroke-width:2;" width="162.0757" x="147.2957" y="476.2656"/><text fill="#000000" font-family="Arial" font-size="11" font-weight="bold" lengthAdjust="spacing" textLength="144.2461" x="153.2957" y="490.4761">Flujo Alternativo - Salir</text><g class="message" data-entity-1="part1" data-entity-2="part2" id="msg11"><polygon fill="#181818" points="194.9392,521.875,204.9392,525.875,194.9392,529.875,198.9392,525.875" style="stroke:#181818;stroke-width:1;"/><line style="stroke:#181818;stroke-width:1;" x1="31.0339" x2="200.9392" y1="525.875" y2="525.875"/><text fill="#000000" font-family="Arial" font-size="11" lengthAdjust="spacing" textLength="65.334" x="38.0339" y="521.2808">solicita salir</text></g><g class="message" data-entity-1="part2" data-entity-2="part1" id="msg12"><polygon fill="#181818" points="42.0339,548.6797,32.0339,552.6797,42.0339,556.6797,38.0339,552.6797" style="stroke:#181818;stroke-width:1;"/><line style="stroke:#181818;stroke-width:1;stroke-dasharray:2,2;" x1="36.0339" x2="205.9392" y1="552.6797" y2="552.6797"/><text fill="#000000" font-family="Arial" font-size="11" lengthAdjust="spacing" textLength="151.9053" x="48.0339" y="548.0854">vuelve a GRADOS_ABIERTO</text></g><?plantuml-src bL7BJiCm4BpxArRY0X8vz5eHfD2cLIyKDTpHuYoLgMj76oS2VejFuCTm7gIFfAALJ-kTcTtPoJVAPCYuXLUKcpNRmgGJgot3rIokdiWxH4flM6WtiyOzufOWOeLwk9-eBuBHI0YKpcjDhIJZI4ZVOgjXpfZQVD9KcbZuhdAVxNz2N2f91vz2X27CTF5kuOcLaIf33G4ijfbbXrBzV1k8FvIpEK8O2j5EXE2-DsmCgc71kkvKEweIFRYtbhOs0uy5YMaB5yUWtOXsxp589YztdJfxSop-v-sWwYGQQZleaDam8EXFgz4rqQDI6gBj1WtUmsvwlBqGqW7BNgQzS7VD9WDgCkZhxLrr5sMa7R513_JE86RsfxuqlGlpEESUL2toZ-iQSmjCofV6uMbR2MfrXgtSQYMLzvLN-0vx5mG3uB8WNH8Wp5VHT9cyH0-BUFMy5By0?></g></svg>