<svg xmlns="http://www.w3.org/2000/svg" xmlns:xlink="http://www.w3.org/1999/xlink" contentStyleType="text/css" data-diagram-type="DESCRIPTION" height="432px" preserveAspectRatio="none" style="width:1079px;height:432px;background:#FFFFFF;" version="1.1" viewBox="0 0 1079 432" width="1079px" zoomAndPan="magnify"><?plantuml 1.2026.5?><defs/><g><!--cluster eliminarPublicacion--><g class="cluster" data-qualified-name="eliminarPublicacion" data-source-line="5" id="ent0002"><path d="M211.85,6 L380.7201,6 A3.75,3.75 0 0 1 383.2201,8.5 L390.2201,28.2969 L832.85,28.2969 A2.5,2.5 0 0 1 835.35,30.7969 L835.35,414.69 A2.5,2.5 0 0 1 832.85,417.19 L211.85,417.19 A2.5,2.5 0 0 1 209.35,414.69 L209.35,8.5 A2.5,2.5 0 0 1 211.85,6" fill="none" style="stroke:#000000;stroke-width:1.5;"/><line style="stroke:#000000;stroke-width:1.5;" x1="209.35" x2="390.2201" y1="28.2969" y2="28.2969"/><text fill="#000000" font-family="sans-serif" font-size="14" font-weight="700" lengthAdjust="spacing" textLength="167.8701" x="213.35" y="20.9951">eliminarPublicacion()</text></g><!--entity EliminarPublicacionView--><g class="entity" data-qualified-name="eliminarPublicacion.EliminarPublicacionView" data-source-line="6" id="ent0003"><rect fill="#629EF9" height="36.2969" rx="2.5" ry="2.5" style="stroke:#181818;stroke-width:0.5;" width="190.1738" x="450.26" y="41"/><text fill="#000000" font-family="sans-serif" font-size="14" lengthAdjust="spacing" textLength="170.1738" x="460.26" y="63.9951">EliminarPublicacionView</text></g><!--entity PublicacionController--><g class="entity" data-qualified-name="eliminarPublicacion.PublicacionController" data-source-line="7" id="ent0004"><rect fill="#B5BD68" height="36.2969" rx="2.5" ry="2.5" style="stroke:#181818;stroke-width:0.5;" width="168.4561" x="317.12" y="154.3"/><text fill="#000000" font-family="sans-serif" font-size="14" lengthAdjust="spacing" textLength="148.4561" x="327.12" y="177.2951">PublicacionController</text></g><!--entity PublicacionRepository--><g class="entity" data-qualified-name="eliminarPublicacion.PublicacionRepository" data-source-line="8" id="ent0005"><rect fill="#F2AC4E" height="36.2969" rx="2.5" ry="2.5" style="stroke:#181818;stroke-width:0.5;" width="174.3555" x="329.17" y="267.6"/><text fill="#000000" font-family="sans-serif" font-size="14" lengthAdjust="spacing" textLength="154.3555" x="339.17" y="290.5951">PublicacionRepository</text></g><!--entity Publicacion--><g class="entity" data-qualified-name="eliminarPublicacion.Publicacion" data-source-line="9" id="ent0006"><rect fill="#F2AC4E" height="36.2969" rx="2.5" ry="2.5" style="stroke:#181818;stroke-width:0.5;" width="99.2832" x="366.71" y="364.89"/><text fill="#000000" font-family="sans-serif" font-size="14" lengthAdjust="spacing" textLength="79.2832" x="376.71" y="387.8851">Publicacion</text></g><!--entity PublicacionAbierta--><g class="entity" data-qualified-name="PublicacionAbierta" data-source-line="3" id="ent0001"><rect fill="#CDEBA5" height="36.2969" rx="2.5" ry="2.5" style="stroke:#181818;stroke-width:0.5;" width="186.7012" x="7" y="41"/><text fill="#000000" font-family="sans-serif" font-size="14" lengthAdjust="spacing" textLength="166.7012" x="17" y="63.9951">:PUBLICACION_ABIERTA</text></g><!--entity PublicacionesSalida--><g class="entity" data-qualified-name="PublicacionesSalida" data-source-line="12" id="ent0007"><rect fill="#CDEBA5" height="36.2969" rx="2.5" ry="2.5" style="stroke:#181818;stroke-width:0.5;" width="213.3203" x="851.69" y="154.3"/><text fill="#000000" font-family="sans-serif" font-size="14" lengthAdjust="spacing" textLength="193.3203" x="861.69" y="177.2951">:PUBLICACIONES_ABIERTAS</text></g><!--link PublicacionAbierta to EliminarPublicacionView--><g class="link" data-entity-1="ent0001" data-entity-2="ent0003" data-link-type="dependency" data-source-line="14" id="lnk8"><path d="M194.18,59.15 C269.4,59.15 369.52,59.15 445.12,59.15" fill="none" id="PublicacionAbierta-to-EliminarPublicacionView" style="stroke:#181818;stroke-width:1;"/><polygon fill="#181818" points="450.12,59.15,441.12,55.15,445.12,59.15,441.12,63.15,450.12,59.15" style="stroke:#181818;stroke-width:1;stroke-linejoin:miter;stroke-miterlimit:10;"/><text fill="#000000" font-family="sans-serif" font-size="13" lengthAdjust="spacing" textLength="136.811" x="253.98" y="52.2169">eliminarPublicacion()</text></g><!--link EliminarPublicacionView to PublicacionController--><g class="link" data-entity-1="ent0003" data-entity-2="ent0004" data-link-type="dependency" data-source-line="16" id="lnk9"><path d="M449.85,75.79 C366.02,89.51 257.35,107.3 257.35,107.3 C257.35,107.3 257.35,124.3 257.35,124.3 C257.35,124.3 302.0381,138.9347 342.9781,152.3347" fill="none" id="EliminarPublicacionView-to-PublicacionController" style="stroke:#181818;stroke-width:1;"/><polygon fill="#181818" points="347.73,153.89,340.4208,147.2888,342.9781,152.3347,337.9322,154.8919,347.73,153.89" style="stroke:#181818;stroke-width:1;stroke-linejoin:miter;stroke-miterlimit:10;"/><text fill="#000000" font-family="sans-serif" font-size="13" lengthAdjust="spacing" textLength="327.9009" x="258.35" y="120.3669">cargarPublicacionParaEliminacion(id) : Publicacion</text></g><!--link EliminarPublicacionView to PublicacionController--><g class="link" data-entity-1="ent0003" data-entity-2="ent0004" data-link-type="dependency" data-source-line="22" id="lnk12"><path d="M562.11,77.71 C574.9,91.11 590.35,107.3 590.35,107.3 C590.35,107.3 590.35,124.3 590.35,124.3 C590.35,124.3 530.5313,139.2199 476.8513,152.6099" fill="none" id="EliminarPublicacionView-to-PublicacionController-1" style="stroke:#181818;stroke-width:1;"/><polygon fill="#181818" points="472,153.82,481.7005,155.5229,476.8513,152.6099,479.7643,147.7607,472,153.82" style="stroke:#181818;stroke-width:1;stroke-linejoin:miter;stroke-miterlimit:10;"/><text fill="#000000" font-family="sans-serif" font-size="13" lengthAdjust="spacing" textLength="188.8301" x="591.35" y="120.3669">eliminarPublicacion(id) : void</text></g><!--link PublicacionController to PublicacionRepository--><g class="link" data-entity-1="ent0004" data-entity-2="ent0005" data-link-type="dependency" data-source-line="18" id="lnk10"><path d="M357.41,191 C323.86,204.41 283.35,220.6 283.35,220.6 C283.35,220.6 283.35,237.6 283.35,237.6 C283.35,237.6 324.2975,252.1091 362.1175,265.5191" fill="none" id="PublicacionController-to-PublicacionRepository" style="stroke:#181818;stroke-width:1;"/><polygon fill="#181818" points="366.83,267.19,359.6842,260.4123,362.1175,265.5191,357.0107,267.9523,366.83,267.19" style="stroke:#181818;stroke-width:1;stroke-linejoin:miter;stroke-miterlimit:10;"/><text fill="#000000" font-family="sans-serif" font-size="13" lengthAdjust="spacing" textLength="192.3784" x="284.35" y="233.6669">obtenerPorId(id) : Publicacion</text></g><!--link PublicacionController to PublicacionRepository--><g class="link" data-entity-1="ent0004" data-entity-2="ent0005" data-link-type="dependency" data-source-line="24" id="lnk13"><path d="M431.14,191 C453.88,204.41 481.35,220.6 481.35,220.6 C481.35,220.6 481.35,237.6 481.35,237.6 C481.35,237.6 463.0768,250.8434 444.5968,264.2534" fill="none" id="PublicacionController-to-PublicacionRepository-1" style="stroke:#181818;stroke-width:1;"/><polygon fill="#181818" points="440.55,267.19,450.1835,265.1416,444.5968,264.2534,445.485,258.6667,440.55,267.19" style="stroke:#181818;stroke-width:1;stroke-linejoin:miter;stroke-miterlimit:10;"/><text fill="#000000" font-family="sans-serif" font-size="13" lengthAdjust="spacing" textLength="148.4336" x="482.35" y="233.6669">eliminarPorId(id) : void</text></g><!--link PublicacionRepository to Publicacion--><g class="link" data-entity-1="ent0005" data-entity-2="ent0006" data-link-type="association" data-source-line="20" id="lnk11"><path d="M416.35,304.22 C416.35,321.42 416.35,347.52 416.35,364.67" fill="none" id="PublicacionRepository-Publicacion" style="stroke:#181818;stroke-width:1;"/></g><!--link EliminarPublicacionView to PublicacionesSalida--><g class="link" data-entity-1="ent0003" data-entity-2="ent0007" data-link-type="dependency" data-source-line="26" id="lnk14"><path d="M636.18,77.77 C705.2,91.17 788.35,107.3 788.35,107.3 C788.35,107.3 856.8818,133.1652 907.2218,152.1552" fill="none" id="EliminarPublicacionView-to-PublicacionesSalida" style="stroke:#181818;stroke-width:1;stroke-dasharray:7,7;"/><polygon fill="#181818" points="911.9,153.92,904.8911,147.0008,907.2218,152.1552,902.0674,154.486,911.9,153.92" style="stroke:#181818;stroke-width:1;stroke-linejoin:miter;stroke-miterlimit:10;"/><text fill="#000000" font-family="sans-serif" font-size="13" lengthAdjust="spacing" textLength="129.0542" x="830.35" y="120.3669">abrirPublicaciones()</text></g><?plantuml-src dP91JuD048Nl-oicU2a7UcXiOpaq0QG9YL5IrAjPO48ctUwI0JMDyRzBhLfe8IJkRNVVl9dtxLPRqgLakGD56kjzYL0QjJziX63CQgaBXN0Lt8Q-DmVBZP_ykoZmWkZX_iNpet3pw5aWAuXVKqMPpCXeBoNaMWfHocmh2mHKj2CjkQKvb5WzvnFRWWy1pMerNyoMuNe9uQNycV3zN9tEqtnnqnueCBfcenJokNOzyuBhiAtTO6aggWtlnxNYSvHHcFnIIiunOPL8HNd3wP8TEEoiXWAxq0jEY04zE7bZril3XKnoqQc8cz_mO_JjIxaDRYUrwBK2fzla1D85azQeaMF3KJvYU2fh3BkgmNZ3wVf07Vk_6Sh_aUJFi1NbQ3KqtNIwwdjr5sJAn9sRYVq5?></g></svg>